<?xml version="1.0" encoding="UTF-8" standalone="no"?>
<svg xmlns="http://www.w3.org/2000/svg" xmlns:xlink="http://www.w3.org/1999/xlink" width="297.000mm" height="210.000mm" viewBox="0.000000 0.000000 297.000000 210.000000" stroke-linejoin="round" stroke-linecap="round" fill="none" fill-rule="evenodd"><desc>Composer Export</desc><script type="text/ecmascript"><![CDATA[
if(typeof(top) != "undefined")
{
	top.ShowPaper = ShowPaper;
}
function ShowHotSpot(evt,hotspotid)
{
	var svgDocument = evt.target.ownerDocument;
	var strId = "hotspot."+hotspotid;
	var hotspot = svgDocument.getElementById(strId);
	if(hotspot)
		hotspot.setAttribute("opacity",".5");
}
function HideHotSpot(evt,hotspotid)
{
	var svgDocument = evt.target.ownerDocument;
	var strId = "hotspot."+hotspotid;
	var hotspot = svgDocument.getElementById(strId);
	if(hotspot)
		hotspot.setAttribute("opacity","0");

	var toolTip = svgDocument.getElementById('ToolTip');
	if(toolTip)
		toolTip.setAttribute("visibility","hidden");
}
function ShowToolTip(evt,hotspotid,strTooltip)
{
	if(strTooltip=="")
	return;

	// change text
	var svgDocument = evt.target.ownerDocument;
	var tiptext = svgDocument.getElementById('ToolTipText');
	if( !tiptext )
	return;
	tiptext.firstChild.nodeValue = " " + strTooltip + "  " ;

	// show tooltip before, else some refresh issue

	var toolTip = svgDocument.getElementById('ToolTip');
	if(!toolTip)
	return;

	toolTip.setAttribute("visibility","visible");
	toolTip.setAttribute("opacity",".95");

	// move tooltip
	// get viewbox

	var root = svgDocument.documentElement;
	var vbox = (root.getAttribute("viewBox")).split(' ');
	var x0 = parseFloat(vbox[0]);
	var y0 = parseFloat(vbox[1]);
	var vboxW = parseFloat(vbox[2]);
	var vboxH = parseFloat(vbox[3]);

	// get default width of svg

	var strW = root.getAttribute("width");
	var svgW = parseFloat(strW);
	if(strW.indexOf('mm') != -1)
	svgW *= 3.779;

	var strH = root.getAttribute("height");
	var svgH = parseFloat(strH);
	if(strH.indexOf('mm') != -1)
	svgH *= 3.779;  	// 96 dpi  -> 96/25.4 = 3.779

	// update the viewbox / width / height if svg is embedded in html with zoom fit all
	var realx0 = x0;
	var realy0 = y0;
	var realvboxW = vboxW;
	var realvboxH = vboxH;
	var realsvgW = svgW;
	var realsvgH = svgH;

	if ((typeof(top) == "undefined") || (typeof(top.svgctl1) != "undefined")) // embedded in html
	{
		// get window size in pxl

		svgW = window.innerWidth;
		svgH = window.innerHeight;

		// calculate real viewbox

		realsvgW = svgW;
		realsvgH = svgH;
		if((svgW / svgH) > (vboxW / vboxH))
		{
			realvboxW = (vboxH * svgW) / svgH;
			realvboxH = vboxH;
			realx0 = x0 - (realvboxW - vboxW)/2 ;
		}
		else
		{
			realvboxH = (vboxW * svgH) / svgW;
			realvboxW = vboxW;
			realy0 = y0 - (realvboxH - vboxH)/2 ;
		}
	}

	// get user zoom/pan

	var newScale = root.currentScale;
	var translation = root.currentTranslate;

	// transform pxl to user unit

	var xPos = (((evt.clientX+10- translation.x)/newScale) * realvboxW)/realsvgW  + realx0 ;
	var yPos = (((evt.clientY+5- translation.y)/newScale) * realvboxH)/ realsvgH  + realy0 ;
	var scaleForWidth = ( (1 / newScale) * realvboxH) / realsvgH;

	// move tooltip

	toolTip.setAttribute("transform", "translate(" + xPos + "," + yPos + ")" );

	// resize tooltip

	var fontsize = 12;
	tiptext.setAttribute("font-size",fontsize*scaleForWidth);
	tiptext.setAttribute("y", fontsize*scaleForWidth);
	var tipBG = svgDocument.getElementById('ToolTipBG');
	var outline = tiptext.getBBox();
	if(tipBG)
	{
		tipBG.setAttribute("stroke-width", 1*scaleForWidth);
		tipBG.setAttribute("width", Number(outline.width) );
		tipBG.setAttribute("height", Number(outline.height) + fontsize*.5*scaleForWidth );
	}
	var ToolTipShadow = svgDocument.getElementById('ToolTipShadow');
	if(ToolTipShadow)
	{
		ToolTipShadow.setAttribute("width", Number(outline.width) );
		ToolTipShadow.setAttribute("height", Number(outline.height) + fontsize*.5*scaleForWidth );
		ToolTipShadow.setAttribute("x", 3*scaleForWidth);
		ToolTipShadow.setAttribute("y", 3*scaleForWidth);
	}
}
function ShowPaper()
{
  var svgDocument = getDocument();
  var paper = svgDocument.getElementById("paperID");
  if(paper)
  {
    paper.setAttribute("transform","scale(1)");
    paper.setAttribute("opacity","1");
    paper.setAttribute("visibility","visible");
  }
  var svg = svgDocument.getRootElement();
  if(svg)
  {
    svg.setAttribute("width","307.000mm");
    svg.setAttribute("height","220.000mm");
    svg.setAttribute("viewBox","-5.000000 -5.000000 307.000000 220.000000");
  }
}
]]></script><defs/><g><path style="fill:#ffffff" d="M296.92,209.90L0.08,209.90L0.08,0.08L296.92,0.08z"/><path style="fill:#1a1a1a" d="M104.11,32.72L104.72,32.81L105.91,32.49L108.00,29.45L108.83,28.81L109.35,28.70L109.88,28.72L110.89,28.96L109.43,29.08L108.39,29.84L104.68,35.37L103.96,36.70L103.78,36.79L100.72,41.42L99.75,43.28L99.75,45.28L100.29,46.55L101.23,46.57L104.81,45.26L105.74,45.18L106.56,45.99L107.02,46.45L108.32,47.53L106.93,49.44L106.95,50.39L107.81,50.78L107.96,50.92L109.18,50.91L110.66,49.48L111.06,49.62L113.17,51.33L113.98,52.31L115.71,54.23L116.99,55.77L117.85,56.24L117.99,56.54L120.33,58.59L123.93,61.15L125.72,62.13L127.03,62.89L126.98,65.80L128.10,66.42L129.03,66.40L129.69,64.21L130.41,64.48L130.58,64.75L132.63,66.32L133.72,67.44L128.97,69.16L127.93,71.20L126.55,72.91L125.79,73.11L124.50,72.97L125.30,72.62L126.70,72.03L127.86,69.84L127.65,69.57L123.91,66.57L114.67,61.16L106.44,52.97L101.08,48.84L99.62,47.19L99.24,46.31L98.99,44.59L99.50,42.26L100.65,40.32L100.43,40.05L99.77,39.36L98.27,38.34L97.35,38.51L101.98,31.37L102.15,31.26z"/><path style="fill:#141414" d="M103.33,38.42L103.33,39.10L104.83,39.12L106.98,37.67L107.91,36.80L108.09,36.77L106.02,40.36L105.70,40.48L105.15,41.74L105.15,43.48L105.74,45.18L104.81,45.26L101.23,46.57L100.29,46.55L99.75,45.28L99.75,43.28L100.72,41.42L103.78,36.79L103.96,36.70z"/><path style="fill:#3c3c3c" d="M105.93,40.71L105.91,43.49L106.30,44.87L105.74,45.18L105.15,43.48L105.15,41.74L105.70,40.48L106.02,40.36z"/><path style="fill:#ffffff" d="M115.26,32.92L114.52,35.48L114.18,35.26L112.76,35.24L111.75,35.76L109.19,38.34L107.71,41.23L107.60,42.62L107.69,43.24L109.27,44.50L109.91,45.21L108.32,47.53L107.02,46.45L106.97,45.97L106.72,45.26L106.30,44.87L105.91,43.49L105.93,40.71L106.02,40.36L108.09,36.77L110.07,33.81L110.16,33.62L112.20,30.55z"/><path style="fill:#1a1a1a" d="M170.34,134.67L171.18,132.98L171.40,135.87L172.69,137.40L173.79,138.09L174.75,139.19L183.47,147.16L186.62,149.07L186.89,149.22L187.06,149.48L188.66,150.35L196.57,155.07L197.14,155.36L197.32,155.62L199.35,156.69L200.92,156.94L202.72,156.77L206.70,154.33L210.17,151.90L210.19,150.92L210.16,150.26L208.19,148.68L216.59,143.23L216.82,144.61L217.87,145.36L218.63,145.81L218.80,146.00L219.54,145.88L223.90,142.79L224.78,141.61L225.05,141.11L225.08,139.64L225.07,138.86L225.18,138.36L225.70,139.37L225.57,141.63L224.56,143.18L215.95,148.97L216.47,149.01L217.85,148.69L218.90,149.46L218.89,150.61L217.23,153.27L213.82,155.60L212.20,155.39L211.95,155.13L211.94,153.66L212.60,152.28L214.24,150.22L213.95,150.23L205.01,156.23L202.64,157.46L198.84,157.46L188.07,151.55L187.30,151.02L187.12,151.37L182.70,148.44L177.83,144.07L174.09,140.93L173.71,140.45L173.69,143.70L174.05,143.46L174.47,143.58L189.61,155.39L191.44,156.95L191.92,157.04L192.02,154.58L193.75,155.62L193.98,157.70L194.24,158.84L195.28,157.80L195.52,156.38L196.03,156.67L196.29,158.47L197.56,159.00L200.04,159.26L201.68,158.81L205.45,156.94L209.15,154.62L209.11,158.03L205.26,160.60L202.89,161.82L199.35,161.82L192.18,158.22L187.31,155.11L187.08,155.52L186.66,155.59L186.02,154.88L180.10,150.50L179.71,150.46L178.60,149.41L177.57,148.18L176.00,146.66L175.83,146.64L171.92,143.05L170.61,141.03z"/><path style="fill:#4c4c4c" d="M177.55,134.84L178.37,135.51L178.91,136.06L179.09,136.65L180.72,138.05L181.40,138.45L184.50,141.26L188.60,144.09L188.93,144.70L188.67,145.80L187.56,147.77L186.71,148.48L186.62,149.07L183.47,147.16L174.75,139.19L173.79,138.09L174.64,137.93L176.26,135.96L177.37,134.28z"/><path style="fill:#c0c0c0" d="M111.16,45.89L111.34,46.90L107.81,50.78L106.95,50.39L106.93,49.44L108.32,47.53L109.91,45.21z"/><path style="fill:#e4e9ed" d="M114.52,35.48L113.55,35.77L113.26,36.27L113.90,37.81L115.17,38.59L114.54,39.07L112.89,41.01L111.50,43.22L111.14,45.18L110.56,45.01L107.60,42.62L107.71,41.23L109.19,38.34L111.75,35.76L112.76,35.24L114.18,35.26z"/><path style="fill:#999999" d="M115.94,47.58L120.59,50.88L121.36,51.86L115.43,48.09L113.63,47.29L113.04,47.29L112.60,47.65L111.11,49.03L110.66,49.48L109.18,50.91L107.96,50.92L107.81,50.78L111.34,46.90L111.16,45.89L111.14,45.18L111.61,45.01z"/><path style="fill:#1a1a1a" d="M178.43,135.31L178.37,135.51L177.55,134.84L177.37,134.28L177.63,134.29z"/><path style="fill:#4c4c4c" d="M112.60,50.14L113.45,51.05L113.17,51.33L111.06,49.62L110.66,49.48L111.11,49.03z"/><path style="fill:#c0c0c0" d="M116.79,33.42L116.19,37.14L116.20,38.06L116.72,38.59L117.78,38.60L119.30,40.36L120.40,41.27L124.69,45.25L128.51,47.84L131.60,49.40L132.01,49.38L134.00,47.45L134.17,47.55L135.31,48.52L135.12,48.85L133.38,50.76L133.38,51.15L134.68,51.98L135.19,52.02L135.33,51.64L137.08,52.93L137.02,53.07L136.14,53.48L134.18,54.86L132.14,57.44L130.85,60.48L129.83,59.87L127.48,58.09L127.08,58.05L124.16,54.50L122.64,53.20L121.36,51.86L120.59,50.88L115.94,47.58L111.61,45.01L111.14,45.18L111.50,43.22L112.89,41.01L114.54,39.07L115.17,38.59L113.90,37.81L113.26,36.27L113.55,35.77L114.52,35.48L115.26,32.92z"/><path style="fill:#c0c0c0" d="M194.53,121.43L194.40,121.49L191.31,126.40L190.93,126.38L189.86,125.60L189.87,126.37L192.00,128.35L192.19,128.94L193.05,129.57L196.82,133.04L200.64,135.63L206.37,138.57L204.67,138.96L202.46,140.86L200.37,143.91L200.30,144.67L201.19,145.35L202.19,146.66L202.55,147.85L200.92,147.17L198.44,150.46L198.05,150.28L197.12,149.14L199.11,145.60L196.03,142.04L194.00,140.23L193.49,139.66L192.69,138.71L185.03,133.54L184.75,133.29L183.88,133.30L178.93,135.58L178.43,135.31L177.63,134.29L181.03,132.20L181.19,131.79L180.10,130.74L179.76,130.64L179.87,129.12L180.01,128.61L181.68,125.98L183.21,124.18L184.04,123.52L184.39,123.21L186.55,123.03L188.87,124.84L189.51,124.85L191.44,122.37L191.53,122.18L192.43,121.07L192.85,120.45L193.73,120.46z"/><path style="fill:#e4e9ed" d="M206.82,138.94L208.69,140.36L209.15,140.74L209.93,141.20L209.95,141.38L208.27,141.78L205.93,143.81L203.98,147.00L203.52,148.88L203.21,148.75L202.55,147.85L202.19,146.66L201.19,145.35L200.30,144.67L200.37,143.91L202.46,140.86L204.67,138.96L206.37,138.57L206.67,138.67z"/><path style="fill:#ffffff" d="M115.43,48.09L121.36,51.86L122.64,53.20L124.16,54.50L127.08,58.05L127.63,58.80L127.49,59.19L127.03,62.89L125.72,62.13L125.18,61.44L120.84,58.33L118.52,56.28L117.85,56.24L116.99,55.77L115.71,54.23L113.98,52.31L113.62,51.16L113.45,51.05L112.60,50.14L111.11,49.03L112.60,47.65L113.04,47.29L113.63,47.29z"/><path style="fill:#999999" d="M117.76,33.64L117.90,33.88L117.47,37.15L117.47,37.80L120.09,40.61L120.40,41.27L119.30,40.36L117.78,38.60L116.72,38.59L116.20,38.06L116.19,37.14L116.79,33.42L117.04,33.31z"/><path style="fill:#999999" d="M138.03,53.98L138.11,55.38L137.89,55.39L137.77,55.05L137.35,54.85L137.02,54.49L135.87,54.49L135.19,54.84L133.67,56.15L132.10,58.68L131.98,60.08L132.11,60.66L133.23,61.40L132.83,61.72L131.59,61.71L130.59,61.17L130.29,61.47L129.69,64.21L129.03,66.40L128.10,66.42L129.03,61.26L129.05,60.14L127.63,58.80L127.08,58.05L127.48,58.09L129.83,59.87L130.85,60.48L132.14,57.44L134.18,54.86L136.14,53.48L137.02,53.07L137.08,52.93L137.26,52.97z"/><path style="fill:#999999" d="M194.80,121.66L194.79,122.45L193.88,123.97L193.80,124.18L191.90,127.49L192.00,128.35L189.87,126.37L189.86,125.60L190.93,126.38L191.31,126.40L194.40,121.49L194.53,121.43z"/><path style="fill:#4c4c4c" d="M191.67,146.15L193.98,146.92L197.12,149.14L198.05,150.28L198.44,150.46L198.59,150.77L199.19,151.00L199.88,151.57L203.15,151.30L206.03,149.82L207.74,148.69L208.19,148.68L210.16,150.26L210.19,150.92L204.75,154.44L202.38,155.66L199.62,155.65L198.58,155.38L197.14,155.36L196.57,155.07L197.58,153.18L197.66,152.23L197.89,150.63L197.83,150.49L197.66,152.23L196.72,153.84L195.53,153.83L188.85,149.99L188.66,150.35L187.06,149.48L186.89,149.22L187.50,148.73L188.60,147.02L188.67,145.80L189.19,144.97z"/><path style="fill:#141414" d="M143.95,41.84L144.44,44.25L144.00,46.15L143.39,47.39L138.18,49.40L137.58,49.37L138.79,46.89L139.06,45.03L138.78,43.27L139.28,43.19L139.99,45.36L143.64,44.09L143.07,41.90L143.53,41.34z"/><path style="fill:#141414" d="M143.43,58.86L143.25,60.03L142.40,59.37L141.08,59.45L139.19,61.15L137.99,63.57L138.00,64.24L139.56,65.29L140.08,65.98L139.30,65.52L137.24,65.54L136.88,64.96L137.42,63.23L138.93,60.63L141.34,58.43L142.50,57.96L142.92,58.08z"/><path style="fill:#141414" d="M133.39,58.94L133.39,60.42L133.53,60.59L133.41,61.37L133.23,61.40L132.11,60.66L131.98,60.08L132.64,60.49L133.39,58.18L134.08,57.33L134.25,57.24z"/><path style="fill:#141414" d="M133.80,69.06L132.78,70.40L131.78,71.12L131.82,70.64L131.27,70.65L129.10,71.55L128.66,71.70L127.75,72.56L126.55,72.91L127.93,71.20L128.97,69.16L133.72,67.44L133.96,67.51z"/><path style="fill:#141414" d="M184.39,123.21L184.04,123.52L182.94,123.90L181.16,125.46L180.10,127.48L180.01,128.61L179.87,129.12L178.85,128.88L178.92,127.62L179.88,125.77L180.71,124.70L182.76,123.01L183.47,122.35L183.59,121.95z"/><path style="fill:#141414" d="M178.93,135.58L178.91,136.06L178.37,135.51L178.43,135.31z"/><path style="fill:#141414" d="M217.85,148.69L216.47,149.01L215.95,148.97L224.56,143.18L225.57,141.63L225.70,139.37L225.81,142.13L225.39,143.21L224.81,143.95L221.70,146.23L221.63,149.60L222.25,149.35L225.05,147.27L225.66,146.39L225.57,147.00L224.38,148.70L224.19,148.71L223.84,149.14L223.41,149.23L218.73,152.45L217.23,153.27L218.89,150.61L218.90,149.46z"/><path style="fill:#c0c0c0" d="M214.26,136.39L214.83,137.08L208.69,140.36L206.82,138.94L206.67,138.67L209.81,137.42L211.06,136.84L212.89,136.12L213.75,136.12z"/><path style="fill:#ffffff" d="M118.85,34.19L119.03,34.46L120.37,35.14L120.58,35.51L123.64,37.57L128.09,41.38L129.08,41.58L132.15,44.97L132.63,46.29L134.00,47.45L132.01,49.38L131.60,49.40L128.51,47.84L124.69,45.25L120.40,41.27L120.09,40.61L117.47,37.80L117.47,37.15L117.90,33.88z"/><path style="fill:#ffffff" d="M195.05,124.99L195.17,125.18L196.12,125.22L198.60,126.38L200.73,127.64L200.91,128.16L202.27,128.87L202.45,129.21L203.05,129.37L203.49,129.96L204.84,130.66L205.03,130.99L205.81,131.44L206.32,132.01L208.87,134.07L211.06,136.84L209.81,137.42L206.67,138.67L206.37,138.57L200.64,135.63L196.82,133.04L193.05,129.57L192.47,128.66L192.00,128.35L191.90,127.49L193.80,124.18z"/><path style="fill:#ffffff" d="M213.74,139.73L214.34,139.90L214.77,140.50L215.37,140.67L216.06,141.52L216.65,141.70L217.08,142.28L216.59,143.23L208.19,148.68L207.74,148.69L206.03,149.82L203.15,151.30L199.88,151.57L199.19,151.00L201.33,148.43L202.50,148.61L202.72,148.98L203.51,149.42L203.74,149.75L205.21,149.76L206.19,149.20L208.38,147.29L210.15,144.43L210.67,142.90L210.69,142.03L209.95,141.38L209.93,141.20L213.13,139.21L213.34,139.18z"/><path style="fill:#6d726e" d="M139.30,55.79L141.98,57.70L141.27,58.11L139.39,58.55L139.03,58.05L138.71,58.07L138.75,58.33L139.39,58.55L139.32,58.96L137.16,61.97L136.41,61.93L136.74,62.45L136.73,64.10L136.55,64.64L134.44,62.96L133.41,61.37L133.53,60.59L135.04,60.82L135.47,61.45L135.98,61.45L135.45,60.92L135.04,60.82L134.70,60.13L134.69,57.93L135.37,57.33L136.72,57.05L137.81,57.58L138.29,57.60L137.25,56.56L137.13,55.71L137.89,55.39L138.11,55.38z"/><path style="fill:#6d726e" d="M182.68,120.99L183.59,121.95L183.47,122.35L182.76,123.01L180.87,122.55L180.08,121.99L179.79,121.98L180.64,123.29L180.71,124.70L179.88,125.77L179.54,125.87L177.47,125.84L178.92,127.62L178.85,128.88L178.05,128.71L175.53,126.81L175.59,124.56L175.92,123.98L177.86,121.20L178.43,120.90L178.86,121.52L179.36,121.52L178.82,120.97L178.43,120.90L178.48,120.67L180.93,119.64z"/><path style="fill:#b6babd" d="M110.56,45.01L111.14,45.18L111.16,45.89L109.91,45.21L109.27,44.50L107.69,43.24L107.60,42.62z"/><path style="fill:#b6babd" d="M203.21,148.75L203.52,148.88L203.51,149.42L202.72,148.98L202.50,148.61L202.55,147.85z"/><path style="fill:#999999" d="M136.05,48.83L136.28,49.05L135.08,50.91L135.33,51.64L135.19,52.02L134.68,51.98L133.38,51.15L133.38,50.76L135.12,48.85L135.31,48.52z"/><path style="fill:#999999" d="M192.47,128.66L193.05,129.57L192.19,128.94L192.00,128.35z"/><path style="fill:#999999" d="M181.19,131.79L181.03,132.20L179.85,130.99L179.76,130.64L180.10,130.74z"/><path style="fill:#999999" d="M185.03,133.54L192.69,138.71L193.49,139.66L188.33,136.39L184.48,134.57L183.11,134.86L179.65,136.56L178.91,136.06L178.93,135.58L183.88,133.30L184.75,133.29z"/><path style="fill:#999999" d="M215.07,137.41L215.07,138.03L213.56,139.08L213.34,139.18L213.13,139.21L209.93,141.20L209.15,140.74L208.69,140.36L214.83,137.08z"/><path style="fill:#999999" d="M210.69,142.03L210.67,142.90L210.15,144.43L208.38,147.29L206.19,149.20L205.21,149.76L203.74,149.75L203.51,149.42L203.52,148.88L203.98,147.00L205.93,143.81L208.27,141.78L209.95,141.38z"/><path style="fill:#999999" d="M202.55,147.85L202.50,148.61L201.33,148.43L199.19,151.00L198.59,150.77L198.44,150.46L200.92,147.17z"/><path style="fill:#a0a6bd" d="M161.13,69.64L161.13,72.32L160.10,74.62L158.19,77.33L131.24,100.95L129.43,102.48L125.45,106.72L115.71,120.84L110.54,128.51L109.66,129.60L109.57,129.51L108.15,129.99L109.38,129.96L108.53,131.37L106.62,132.81L106.19,135.46L105.59,136.65L104.05,138.96L102.10,141.12L99.96,142.57L97.18,142.57L91.06,137.66L90.59,136.89L90.76,136.93L95.95,141.03L96.41,141.11L97.06,139.20L97.96,139.32L99.66,136.37L102.22,133.54L103.89,132.41L102.84,130.25L102.85,128.77L103.12,127.25L104.32,126.13L107.88,124.31L112.08,117.99L112.29,117.42L113.04,116.64L125.20,99.02L129.98,94.30L159.49,68.62L159.92,68.47L160.37,68.62z"/><path style="fill:#1a1a1a" d="M117.38,21.29L117.48,21.63L118.35,22.01L119.36,22.53L127.04,26.93L127.26,27.30L128.11,27.76L134.42,32.43L135.73,33.69L139.09,36.71L139.31,37.07L139.65,37.17L140.98,38.50L141.09,38.83L143.13,40.67L143.53,41.34L143.07,41.90L143.64,44.09L139.99,45.36L139.28,43.19L138.78,43.27L139.06,45.03L138.79,46.89L137.58,49.37L136.98,49.09L136.82,48.82L137.69,48.10L138.28,46.64L138.28,45.00L137.80,43.88L135.19,41.16L133.16,39.34L132.47,38.84L132.25,38.75L128.29,34.97L125.72,32.66L122.36,30.38L119.86,29.01L110.56,23.43L108.14,23.43L107.06,23.84L108.24,22.76L109.69,22.16L111.47,22.17L112.60,21.22L113.28,20.86L115.16,20.61z"/><path style="fill:#1a1a1a" d="M110.16,33.62L110.07,33.81L108.09,36.77L107.91,36.80L106.98,37.67L104.83,39.12L103.33,39.10L103.33,38.42L103.96,36.70L104.65,36.11L106.21,34.33L108.76,32.74L109.27,32.66z"/><path style="fill:#1a1a1a" d="M120.30,34.76L120.37,35.14L119.03,34.46L118.85,34.19L119.27,34.21z"/><path style="fill:#1a1a1a" d="M137.35,54.85L136.64,55.02L134.56,56.52L134.25,57.24L134.08,57.33L133.39,58.18L132.64,60.49L131.98,60.08L132.10,58.68L133.67,56.15L135.19,54.84L135.87,54.49L137.02,54.49z"/><path style="fill:#1a1a1a" d="M137.13,55.71L137.25,56.56L138.29,57.60L137.81,57.58L136.72,57.05L135.37,57.33L134.69,57.93L134.70,60.13L135.04,60.82L133.53,60.59L133.39,60.42L133.39,58.94L134.25,57.24L136.14,55.79L137.01,55.57z"/><path style="fill:#1a1a1a" d="M139.39,58.55L138.75,58.33L138.71,58.07L139.03,58.05z"/><path style="fill:#1a1a1a" d="M143.25,60.03L144.18,60.67L146.88,62.90L146.15,63.24L144.84,64.24L143.40,66.14L142.75,68.08L142.40,67.79L142.19,67.29L141.47,67.03L141.12,66.75L140.86,66.29L140.44,66.26L140.08,65.98L139.56,65.29L138.00,64.24L137.99,63.57L139.19,61.15L141.08,59.45L142.40,59.37z"/><path style="fill:#1a1a1a" d="M135.98,61.45L135.47,61.45L135.04,60.82L135.45,60.92z"/><path style="fill:#1a1a1a" d="M137.16,61.97L139.32,58.96L139.39,58.55L141.27,58.11L141.98,57.70L142.50,57.96L141.34,58.43L138.93,60.63L137.42,63.23L136.88,64.96L136.55,64.64L136.73,64.10L136.74,62.45L136.41,61.93z"/><path style="fill:#1a1a1a" d="M131.78,71.12L131.02,71.47L129.10,71.55L131.27,70.65L131.82,70.64z"/><path style="fill:#1a1a1a" d="M191.67,116.11L195.34,118.79L202.50,122.95L204.76,124.33L213.00,132.52L218.91,137.13L219.92,138.69L219.92,139.83L219.65,140.33L217.73,142.05L217.38,142.04L216.65,141.70L215.81,140.75L215.37,140.67L214.78,139.98L214.34,139.90L213.56,139.08L215.07,138.03L215.07,137.41L214.83,137.08L214.26,136.39L213.75,136.12L212.89,136.12L211.06,136.84L208.87,134.07L206.32,132.01L205.81,131.44L205.28,130.73L204.84,130.66L204.24,129.98L203.05,129.37L202.73,128.93L202.27,128.87L201.99,128.33L201.96,123.53L199.11,121.76L195.01,119.68L194.80,121.66L194.53,121.43L193.73,120.46L192.85,120.45L192.43,121.07L191.53,122.18L190.65,121.24L190.61,115.66L191.44,115.00z"/><path style="fill:#1a1a1a" d="M176.27,117.40L178.07,118.93L180.46,119.04L178.77,119.72L178.48,120.67L178.43,120.90L177.86,121.20L177.16,120.98L176.27,122.12L175.73,123.03L175.92,123.98L175.59,124.56L174.92,125.38L174.35,125.81L174.32,124.54L174.48,124.31L173.95,123.80L173.56,123.76L173.20,123.48L172.95,123.02L172.53,123.00L172.17,122.71L171.96,122.22L171.25,121.97L170.89,121.68L170.63,121.23L170.25,121.14L170.35,120.03L171.92,117.50L173.35,116.37L173.87,116.09L174.47,116.09z"/><path style="fill:#1a1a1a" d="M179.36,121.52L178.86,121.52L178.43,120.90L178.82,120.97z"/><path style="fill:#1a1a1a" d="M180.87,122.55L182.76,123.01L180.71,124.70L180.64,123.29L179.79,121.98L180.08,121.99z"/><path style="fill:#1a1a1a" d="M193.88,123.97L194.79,122.45L194.83,124.44z"/><path style="fill:#1a1a1a" d="M177.06,125.35L176.51,125.35L176.44,125.07L176.78,125.07z"/><path style="fill:#1a1a1a" d="M179.54,125.87L179.88,125.77L178.92,127.62L177.47,125.84z"/><path style="fill:#1a1a1a" d="M183.21,124.18L181.68,125.98L180.01,128.61L180.10,127.48L181.16,125.46L182.94,123.90L184.04,123.52z"/><path style="fill:#1a1a1a" d="M179.65,136.56L180.41,137.38L180.72,138.05L179.09,136.65L178.91,136.06z"/><path style="fill:#1a1a1a" d="M225.83,143.82L225.66,146.39L225.05,147.27L222.25,149.35L221.63,149.60L221.70,146.23L224.81,143.95L225.39,143.21z"/><path style="fill:#c9d1ed" d="M157.02,66.05L159.92,68.47L159.49,68.62L129.98,94.30L125.20,99.02L113.04,116.64L112.29,117.42L112.08,117.99L107.88,124.31L104.32,126.13L103.12,127.25L102.85,128.77L102.84,130.25L103.89,132.41L102.22,133.54L99.66,136.37L97.96,139.32L97.06,139.20L96.41,141.11L95.95,141.03L90.76,136.93L90.59,136.89L90.24,136.15L90.26,135.20L90.51,133.90L91.99,131.01L93.50,129.18L96.35,126.38L98.92,124.59L100.82,123.15L102.07,121.58L119.55,96.45L123.53,92.21L125.33,90.68L148.04,70.78L153.07,66.57L154.61,65.79L156.51,65.79z"/><path style="fill:#c9d1ed" d="M159.10,73.23L158.47,75.05L157.42,76.30L155.90,77.38L155.48,77.36L155.14,76.83L155.90,74.78L156.92,73.49L158.32,72.73z"/><path style="fill:#c9d1ed" d="M109.66,129.60L109.38,129.96L108.15,129.99L109.57,129.51z"/><path style="fill:#c9d1ed" d="M104.17,135.34L104.15,136.23L103.37,137.76L101.25,139.75L100.01,139.74L100.01,138.78L100.94,136.88L101.73,135.87L102.75,135.09L103.91,135.08z"/><path style="fill:#4c4c4c" d="M118.35,22.01L117.48,21.63L117.38,21.29L118.01,21.36z"/><path style="fill:#4c4c4c" d="M127.01,26.52L127.04,26.93L119.36,22.53L120.04,22.39z"/><path style="fill:#4c4c4c" d="M119.86,29.01L119.27,29.16L119.03,31.50L118.77,32.01L117.89,32.94L118.42,32.98L119.54,32.00L119.81,31.50L119.86,29.01L122.36,30.38L125.72,32.66L128.29,34.97L132.25,38.75L130.48,40.65L131.00,40.68L132.39,39.44L132.47,38.84L133.16,39.34L135.19,41.16L137.80,43.88L136.89,44.26L137.00,47.15L136.73,47.91L136.05,48.83L135.31,48.52L134.17,47.55L134.00,47.45L132.63,46.29L132.15,44.97L129.08,41.58L129.03,41.42L128.09,41.38L123.64,37.57L120.58,35.51L120.37,35.14L120.30,34.76L119.27,34.21L118.85,34.19L117.90,33.88L117.76,33.64L117.50,33.15L117.04,33.31L116.79,33.42L115.26,32.92L112.20,30.55L111.60,29.34L110.89,28.96L109.88,28.72L111.07,24.20L110.74,24.17L110.27,24.80L109.35,28.70L108.83,28.81L108.15,28.81L106.84,29.57L104.72,32.81L104.11,32.72L102.15,31.26L102.51,30.12L106.34,24.45L107.06,23.84L108.14,23.43L110.56,23.43z"/><path style="fill:#4c4c4c" d="M135.22,32.41L139.43,36.18L139.09,36.71L135.73,33.69L134.42,32.43L128.11,27.76L129.05,27.79z"/><path style="fill:#4c4c4c" d="M99.77,39.36L100.43,40.05L99.68,40.39L97.96,43.28L97.96,46.30L98.41,47.40L99.46,47.30L99.62,47.19L101.08,48.84L106.44,52.97L114.67,61.16L123.91,66.57L127.65,69.57L126.89,69.91L125.30,72.62L124.50,72.97L123.12,72.75L120.02,70.96L119.06,69.87L117.33,68.60L117.99,67.68L118.60,64.67L118.50,64.49L118.00,64.57L117.49,67.18L116.99,68.21L116.30,68.61L108.50,62.72L108.02,61.40L106.02,59.62L106.70,58.70L106.97,58.20L106.96,55.01L106.43,53.72L106.08,53.69L105.84,53.93L106.19,55.02L106.20,58.20L105.91,58.68L105.80,59.57L105.64,59.74L105.18,59.66L100.82,55.26L99.79,53.98L99.52,53.73L99.27,52.44L98.24,51.41L98.04,50.88L99.26,49.97L99.87,48.51L99.81,48.37L99.19,48.61L98.99,49.19L97.80,50.84L97.03,50.89L94.37,47.33L93.77,44.77L94.29,42.95L96.88,38.88L97.35,38.51L98.27,38.34z"/><path style="fill:#4c4c4c" d="M143.43,40.11L144.50,41.52L143.95,41.84L143.53,41.34L143.13,40.67L141.09,38.83L140.98,38.50L141.88,38.57z"/><path style="fill:#4c4c4c" d="M106.72,45.26L106.97,45.97L106.56,45.99L105.74,45.18L106.30,44.87z"/><path style="fill:#4c4c4c" d="M120.84,58.33L125.18,61.44L125.72,62.13L123.93,61.15L120.33,58.59L117.99,56.54L117.85,56.24L118.52,56.28z"/><path style="fill:#4c4c4c" d="M134.45,67.25L133.96,67.51L133.72,67.44L132.63,66.32L130.58,64.75L130.41,64.48L131.10,64.49z"/><path style="fill:#4c4c4c" d="M196.80,113.03L199.89,114.81L200.29,115.26L200.13,115.65L199.39,116.22L197.50,117.15L195.15,117.66L195.15,118.25L197.50,117.92L199.39,116.99L200.41,116.21L200.55,115.77L202.72,117.13L204.01,117.38L207.84,120.22L211.84,123.47L211.44,124.67L210.33,125.62L208.51,126.41L208.50,126.98L209.82,126.64L211.21,125.73L212.08,124.22L213.76,125.85L215.03,126.38L219.93,131.49L220.56,132.43L219.67,133.68L217.49,135.15L217.49,135.45L218.29,135.39L219.67,134.45L220.77,133.17L221.94,134.36L222.70,134.88L224.90,138.12L225.07,138.86L225.08,139.64L224.45,141.03L223.51,141.88L218.81,145.13L218.63,145.81L217.87,145.36L216.82,144.61L216.59,143.23L217.08,142.28L216.65,141.70L217.38,142.04L217.73,142.05L219.65,140.33L219.92,139.83L219.92,138.69L218.91,137.13L213.00,132.52L204.76,124.33L202.50,122.95L202.47,121.74L201.18,120.73L200.89,121.05L200.40,121.03L195.76,118.65L195.34,118.79L191.67,116.11L191.44,115.00L191.94,114.16L193.38,113.03L193.88,112.76L196.04,112.77z"/><path style="fill:#4c4c4c" d="M194.83,124.44L195.13,124.79L195.05,124.99L193.80,124.18L193.88,123.97z"/><path style="fill:#4c4c4c" d="M203.05,129.37L202.45,129.21L202.27,128.87L202.73,128.93z"/><path style="fill:#4c4c4c" d="M204.24,129.98L204.84,130.66L203.49,129.96L203.05,129.37z"/><path style="fill:#4c4c4c" d="M205.81,131.44L205.03,130.99L204.84,130.66L205.28,130.73z"/><path style="fill:#4c4c4c" d="M176.79,133.30L177.13,133.92L174.98,136.73L173.95,137.51L173.79,138.09L172.69,137.40L171.40,135.87L171.18,132.98L172.31,131.49L172.83,130.98L173.70,130.99z"/><path style="fill:#4c4c4c" d="M214.34,139.90L213.74,139.73L213.34,139.18L213.56,139.08z"/><path style="fill:#4c4c4c" d="M215.37,140.67L214.77,140.50L214.34,139.90L214.78,139.98z"/><path style="fill:#4c4c4c" d="M216.65,141.70L216.06,141.52L215.37,140.67L215.81,140.75z"/><path style="fill:#4c4c4c" d="M177.57,148.18L178.60,149.41L177.82,148.95L176.01,147.16L175.83,146.64L176.00,146.66z"/><path style="fill:#4c4c4c" d="M186.02,154.88L186.66,155.59L186.57,155.81L180.13,151.01L179.71,150.46L180.10,150.50z"/><path style="fill:#3c3c3c" d="M109.88,28.72L109.35,28.70L110.27,24.80L110.74,24.17L111.07,24.20z"/><path style="fill:#3c3c3c" d="M108.00,29.45L105.91,32.49L104.72,32.81L106.84,29.57L108.15,28.81L108.83,28.81z"/><path style="fill:#3c3c3c" d="M119.81,31.50L119.54,32.00L118.42,32.98L117.89,32.94L118.77,32.01L119.03,31.50L119.27,29.16L119.86,29.01z"/><path style="fill:#3c3c3c" d="M117.76,33.64L117.04,33.31L117.50,33.15z"/><path style="fill:#3c3c3c" d="M139.09,36.71L139.43,36.18L139.65,37.17L139.31,37.07z"/><path style="fill:#3c3c3c" d="M132.39,39.44L131.00,40.68L130.48,40.65L132.25,38.75L132.47,38.84z"/><path style="fill:#3c3c3c" d="M129.08,41.58L128.09,41.38L129.03,41.42z"/><path style="fill:#3c3c3c" d="M144.95,42.44L144.95,44.58L144.45,45.89L144.00,46.15L144.44,44.25L143.95,41.84L144.50,41.52z"/><path style="fill:#3c3c3c" d="M138.28,45.00L138.28,46.64L137.69,48.10L136.82,48.82L136.28,49.05L136.05,48.83L136.73,47.91L137.00,47.15L136.89,44.26L137.80,43.88z"/><path style="fill:#3c3c3c" d="M100.65,40.32L99.50,42.26L98.99,44.59L99.24,46.31L99.62,47.19L99.46,47.30L98.41,47.40L97.96,46.30L97.96,43.28L99.68,40.39L100.43,40.05z"/><path style="fill:#3c3c3c" d="M106.56,45.99L106.97,45.97L107.02,46.45z"/><path style="fill:#3c3c3c" d="M99.87,48.51L99.26,49.97L98.04,50.88L97.80,50.84L98.99,49.19L99.19,48.61L99.81,48.37z"/><path style="fill:#3c3c3c" d="M97.68,50.99L97.03,50.89L97.80,50.84z"/><path style="fill:#3c3c3c" d="M113.98,52.31L113.17,51.33L113.45,51.05L113.62,51.16z"/><path style="fill:#3c3c3c" d="M106.96,55.01L106.97,58.20L106.70,58.70L106.02,59.62L105.80,59.57L105.91,58.68L106.20,58.20L106.19,55.02L105.84,53.93L106.08,53.69L106.43,53.72z"/><path style="fill:#3c3c3c" d="M118.60,64.67L117.99,67.68L117.33,68.60L116.30,68.61L116.99,68.21L117.49,67.18L118.00,64.57L118.50,64.49z"/><path style="fill:#3c3c3c" d="M134.53,67.49L133.80,69.06L133.96,67.51L134.45,67.25z"/><path style="fill:#3c3c3c" d="M127.86,69.84L126.70,72.03L125.30,72.62L126.89,69.91L127.65,69.57z"/><path style="fill:#3c3c3c" d="M200.55,115.77L200.41,116.21L199.39,116.99L197.50,117.92L195.15,118.25L195.15,117.66L197.50,117.15L199.39,116.22L200.13,115.65L200.29,115.26z"/><path style="fill:#3c3c3c" d="M200.40,121.03L200.89,121.05L201.18,120.73L202.47,121.74L202.50,122.95L195.34,118.79L195.76,118.65z"/><path style="fill:#3c3c3c" d="M196.12,125.22L195.17,125.18L195.05,124.99L195.13,124.79L195.53,124.82z"/><path style="fill:#3c3c3c" d="M212.08,124.22L211.21,125.73L209.82,126.64L208.50,126.98L208.51,126.41L210.33,125.62L211.44,124.67L211.84,123.47z"/><path style="fill:#3c3c3c" d="M201.99,128.33L202.27,128.87L200.91,128.16L200.73,127.64z"/><path style="fill:#3c3c3c" d="M220.77,133.17L219.67,134.45L218.29,135.39L217.49,135.45L217.49,135.15L219.67,133.68L220.56,132.43z"/><path style="fill:#3c3c3c" d="M177.37,134.28L176.26,135.96L174.64,137.93L173.79,138.09L173.95,137.51L174.98,136.73L177.13,133.92z"/><path style="fill:#3c3c3c" d="M225.18,138.36L225.07,138.86L224.90,138.12z"/><path style="fill:#3c3c3c" d="M209.92,142.80L209.90,143.66L209.38,144.95L208.09,147.00L206.45,148.43L205.46,148.99L204.50,148.99L204.49,146.98L205.80,144.71L206.98,143.32L208.01,142.55L209.38,142.27z"/><path style="fill:#3c3c3c" d="M189.19,144.97L188.67,145.80L188.93,144.70z"/><path style="fill:#3c3c3c" d="M225.05,141.11L224.78,141.61L223.90,142.79L219.54,145.88L218.80,146.00L218.63,145.81L218.81,145.13L223.51,141.88L224.45,141.03L225.08,139.64z"/><path style="fill:#3c3c3c" d="M224.36,148.88L223.84,149.14L224.19,148.71L224.38,148.70z"/><path style="fill:#3c3c3c" d="M188.60,147.02L187.50,148.73L186.89,149.22L186.62,149.07L186.71,148.48L187.56,147.77L188.67,145.80z"/><path style="fill:#3c3c3c" d="M195.53,153.83L196.72,153.84L197.66,152.23L197.58,153.18L196.57,155.07L188.66,150.35L188.85,149.99z"/><path style="fill:#3c3c3c" d="M197.89,150.63L197.66,152.23L197.83,150.49z"/><path style="fill:#3c3c3c" d="M223.65,149.47L219.55,152.30L218.73,152.45L223.41,149.23L223.84,149.14z"/><path style="fill:#3c3c3c" d="M199.62,155.65L202.38,155.66L204.75,154.44L210.19,150.92L210.17,151.90L206.70,154.33L202.72,156.77L200.92,156.94L199.35,156.69L197.32,155.62L197.14,155.36L198.58,155.38z"/><path style="fill:#3c3c3c" d="M187.36,156.06L186.70,156.00L186.57,155.81L186.66,155.59L187.08,155.52z"/><path style="fill:#3c3c3c" d="M196.93,161.49L196.02,161.57L188.85,157.43L188.66,156.91L188.83,156.93z"/><path style="fill:#3c3c3c" d="M199.35,162.59L202.89,162.59L206.44,160.49L210.22,158.16L210.14,158.52L203.39,162.83L201.86,163.35L200.13,163.35L198.57,162.85L198.26,162.64L198.21,162.25z"/><path style="fill:#141414" d="M111.60,29.34L112.20,30.55L110.16,33.62L109.27,32.66L108.76,32.74L106.21,34.33L104.65,36.11L103.96,36.70L104.68,35.37L108.39,29.84L109.43,29.08L110.89,28.96z"/><path style="fill:#141414" d="M138.74,41.24L138.17,41.16L138.87,41.07z"/><path style="fill:#141414" d="M137.89,55.39L137.13,55.71L137.01,55.57L136.14,55.79L134.25,57.24L134.56,56.52L136.64,55.02L137.35,54.85L137.77,55.05z"/><path style="fill:#141414" d="M147.55,63.49L147.54,64.08L146.23,66.65L144.34,68.35L142.89,68.38L142.75,68.08L143.40,66.14L144.84,64.24L146.15,63.24L146.88,62.90z"/><path style="fill:#141414" d="M141.12,66.75L140.58,66.57L140.44,66.26L140.86,66.29z"/><path style="fill:#141414" d="M142.19,67.29L142.40,67.79L141.61,67.32L141.47,67.03z"/><path style="fill:#141414" d="M180.93,119.64L178.48,120.67L178.77,119.72L180.46,119.04L180.68,119.15z"/><path style="fill:#141414" d="M199.11,121.76L201.96,123.53L201.99,128.33L200.73,127.64L198.60,126.38L196.12,125.22L195.53,124.82L195.13,124.79L194.83,124.44L194.79,122.45L194.80,121.66L195.01,119.68z"/><path style="fill:#141414" d="M177.86,121.20L175.92,123.98L175.73,123.03L176.27,122.12L177.16,120.98z"/><path style="fill:#141414" d="M170.89,121.68L170.35,121.51L170.25,121.14L170.63,121.23z"/><path style="fill:#141414" d="M171.96,122.22L172.17,122.71L171.38,122.26L171.25,121.97z"/><path style="fill:#141414" d="M173.20,123.48L172.67,123.30L172.53,123.00L172.95,123.02z"/><path style="fill:#141414" d="M174.48,124.31L174.32,124.54L173.56,123.76L173.95,123.80z"/><path style="fill:#141414" d="M174.35,125.81L174.92,125.38L175.59,124.56L175.53,126.81L174.46,126.38z"/><path style="fill:#141414" d="M174.09,140.93L174.05,143.46L173.69,143.70L173.71,140.45z"/><path style="fill:#141414" d="M188.07,151.55L198.84,157.46L202.64,157.46L205.01,156.23L213.95,150.23L214.24,150.22L212.60,152.28L211.94,153.66L211.95,155.13L212.20,155.39L213.82,155.60L210.22,158.16L206.44,160.49L202.89,162.59L199.35,162.59L198.21,162.25L196.93,161.49L188.83,156.93L188.66,156.91L187.36,156.06L187.08,155.52L187.31,155.11L192.18,158.22L199.35,161.82L202.89,161.82L205.26,160.60L209.11,158.03L209.15,154.62L205.45,156.94L201.68,158.81L200.04,159.26L197.56,159.00L196.29,158.47L196.03,156.67L195.52,156.38L195.28,157.80L194.24,158.84L193.98,157.70L193.75,155.62L192.02,154.58L187.12,151.37L187.30,151.02z"/><path style="fill:#de9b00" d="M138.58,38.35L138.54,38.65L136.39,39.39L135.73,39.37L134.17,37.82L125.69,30.64L119.00,26.24L118.94,26.01L120.99,25.23L121.85,25.22z"/><path style="fill:#de9b00" d="M177.83,144.07L182.70,148.44L187.12,151.37L192.02,154.58L191.92,157.04L191.44,156.95L189.61,155.39L174.47,143.58L174.05,143.46L174.09,140.93z"/><path style="fill:#c0c0c0" d="M129.05,60.14L129.03,61.26L128.10,66.42L126.98,65.80L127.03,62.89L127.49,59.19L127.63,58.80z"/><path style="fill:#ffffff" d="M188.33,136.39L193.49,139.66L194.00,140.23L196.03,142.04L199.11,145.60L197.12,149.14L193.98,146.92L191.67,146.15L189.19,144.97L188.93,144.70L188.60,144.09L184.50,141.26L181.40,138.45L180.72,138.05L180.41,137.38L179.65,136.56L183.11,134.86L184.48,134.57z"/><g id="Actor_13.0"><g style="stroke:#000000;stroke-width:0.176"><path d="M96.97,142.58L96.56,141.66L96.59,141.31L96.67,140.24L97.30,138.47L98.38,136.55L99.79,134.68L101.38,133.07L102.11,132.20L102.56,131.22L102.90,128.26L102.99,127.71L103.44,126.91L104.09,126.34L105.93,125.33L107.61,124.57L108.27,124.38L108.73,124.34L108.87,124.37L108.94,124.45L109.06,124.72L108.47,125.18L107.65,125.90L106.96,126.64L106.43,127.39L106.12,128.10L106.06,128.45L106.14,129.16L106.47,129.66L107.00,130.01L107.70,130.20L108.53,130.23L109.12,130.19L109.02,130.71L108.95,130.90L108.81,131.13"/><path d="M105.10,128.82L106.44,132.81L105.84,132.22L105.28,132.21L104.81,132.21L103.49,132.78L102.02,133.86L100.55,135.35L99.24,137.08L98.25,138.86L97.66,140.50L97.56,141.82L97.94,142.67L98.77,142.97"/><path d="M100.75,140.12L101.38,139.85L102.09,139.33L102.79,138.61L103.42,137.78L103.90,136.93L104.18,136.15L104.23,135.51L104.05,135.10L103.65,134.96L103.08,135.09L102.40,135.50L101.68,136.13L101.01,136.91L100.45,137.76L100.06,138.61L99.90,139.31L99.96,139.84L100.26,140.12L100.75,140.12"/><path d="M101.22,122.98L101.13,123.07"/><path d="M106.14,129.16L106.24,128.95L106.37,128.76L106.34,128.73L106.25,128.48L106.29,128.14L106.36,127.93L106.12,128.10"/><path d="M106.47,133.02L106.44,132.81"/><path d="M109.12,130.19L109.86,129.47L110.53,128.62"/><path d="M109.06,124.72L110.65,121.44L111.07,120.84L111.18,120.72L111.21,120.62"/><path d="M111.58,126.99L111.68,126.81L111.66,126.85"/><path d="M111.68,126.81L111.69,126.80"/><path d="M113.31,124.43L117.08,118.89L117.06,118.92"/><path d="M118.09,117.40L117.08,118.89"/><path d="M124.84,107.52L124.87,106.44"/><path d="M124.84,102.36L124.78,101.24"/><path d="M156.19,77.42L155.68,77.54L155.32,77.40L155.16,77.02L155.21,76.43L155.47,75.71L155.77,75.18L155.91,74.93L156.48,74.18L157.12,73.53L157.76,73.05L158.19,72.87L158.33,72.81L158.77,72.82L159.04,73.09L159.09,73.57L158.93,74.23L158.58,75.00L158.07,75.78L157.45,76.49L157.13,76.79L156.80,77.06L156.19,77.42"/></g><g style="stroke:#000000;stroke-width:0.353"><path d="M90.64,137.46L90.95,137.79L96.97,142.58L97.87,142.91L98.77,142.97L99.95,142.69L101.37,141.85L102.12,141.24L102.86,140.54L104.26,138.91L105.43,137.14L106.23,135.41L106.58,133.91L106.47,133.02L107.71,132.22L108.36,131.65L108.81,131.13L111.26,127.55L111.69,126.80L113.30,124.44L118.01,117.63L124.77,107.75L127.37,104.60L128.63,103.41L157.08,78.51L158.34,77.23L159.49,75.75L160.39,74.21L161.09,72.46L161.31,71.14L161.29,70.74L161.06,69.75L160.89,69.34L160.58,69.01L157.54,66.65L156.85,66.13L156.45,65.92L156.01,65.86L154.98,65.90L154.59,65.99L153.36,66.54L151.82,67.69L122.72,93.12L121.64,94.14L118.88,97.43L106.46,115.53L101.13,123.07L100.09,124.03L98.54,124.90L97.65,125.49L96.41,126.54L94.44,128.26L93.17,129.55L92.02,131.04L91.11,132.59L90.41,134.34L90.21,135.65L90.22,136.06L90.47,137.04L90.64,137.46"/></g></g><g id="Actor_5.0"><g style="stroke:#000000;stroke-width:0.176"><path d="M170.45,138.56L171.92,139.70L171.94,142.30L171.16,141.43L170.52,140.35L170.35,139.15"/><path d="M170.44,136.48L170.48,136.83L171.13,137.91L171.91,138.78L171.92,139.70"/><path d="M170.67,133.71L170.65,133.79"/><path d="M171.44,142.41L174.31,145.22"/><path d="M171.09,133.69L171.10,134.71L171.23,135.69L171.76,136.57L175.96,140.51L173.63,138.17L173.77,138.27L173.93,138.32L174.11,138.33L174.28,138.29L174.43,138.20L175.97,136.57L177.10,134.73L177.13,134.60L177.13,134.15"/><path d="M171.32,132.90L171.10,133.64"/><path d="M174.10,141.00L174.13,143.55L173.58,144.03L173.56,140.52L183.51,149.21L190.70,154.01L193.93,155.74L193.94,159.24L192.02,157.74L192.01,154.71"/><path d="M173.58,144.03L183.53,152.72L190.71,157.52L198.45,161.68L199.91,162.15L201.48,162.25L203.00,161.96L204.36,161.31L209.14,158.15L209.14,154.64L204.35,157.80L202.99,158.45L202.65,158.52L201.38,159.13L199.93,159.43L198.44,159.38L197.02,158.99L195.80,158.28L195.38,157.96L193.94,159.24"/><path d="M192.02,157.44L174.12,143.51"/><path d="M174.83,126.67L174.66,126.00L174.81,125.04L175.05,124.44L175.27,123.90L175.98,122.68L176.88,121.50L177.88,120.49L178.88,119.73L179.79,119.30L180.51,119.25L180.97,119.58"/><path d="M179.40,129.28L179.11,128.94L179.03,128.50L179.10,127.93L179.39,127.08L179.87,126.14L180.37,125.39L179.94,125.82L179.38,126.11L178.70,126.21L177.97,126.07L177.40,125.75L175.68,124.41L175.86,123.29L176.35,122.32L175.73,123.26L175.24,124.22L174.94,125.09L174.84,125.84L174.96,125.34L175.46,124.74L175.57,124.64L175.59,126.99L175.03,126.44L174.84,125.84L174.95,126.39L175.26,126.72L175.58,126.98"/><path d="M174.44,124.72L174.88,123.60L175.60,122.38L176.50,121.20L177.50,120.19L178.50,119.43L178.60,119.38"/><path d="M175.96,146.83L179.12,149.92L187.35,156.03"/><path d="M175.96,140.51L176.04,140.58L175.95,140.46L175.91,140.32L175.91,139.74L175.94,139.55L176.01,139.42L176.14,139.31L177.54,138.63L179.08,138.25L180.69,138.19L180.85,138.22L180.99,138.31"/><path d="M176.04,140.58L184.03,147.76L185.07,148.39L184.06,147.78"/><path d="M175.57,124.64L177.30,125.98L177.88,126.50L178.41,127.12L178.76,127.67L178.97,128.13L179.03,128.50L178.96,128.77L178.74,128.92L178.36,128.90L177.82,128.67"/><path d="M175.68,124.41L178.16,121.02L177.98,121.09L176.97,121.67L176.35,122.32L177.08,121.43L177.88,120.63L178.68,120.01L179.41,119.61L178.82,120.06L178.37,120.84L180.87,119.81L180.74,119.74L179.98,119.51L179.41,119.61L180.04,119.45L180.54,119.53L181.06,119.92"/><path d="M177.13,134.37L177.23,134.45L180.41,138.20"/><path d="M179.51,136.61L177.87,134.74L177.78,134.65L177.52,134.44"/><path d="M178.33,128.94L178.07,128.80"/><path d="M184.35,123.27L184.06,122.93L183.57,122.86L183.07,123.00L182.49,123.31L181.72,123.90L180.94,124.68L180.37,125.39L180.64,124.89L180.76,124.30L180.70,123.62L180.39,122.91L179.89,122.36L178.16,121.02"/><path d="M178.37,120.84L180.12,122.20L180.66,122.55L181.39,122.88L182.07,123.06L182.64,123.09L183.07,123.00L183.34,122.81L183.47,122.53L183.41,122.13L183.10,121.62L182.59,121.15L180.87,119.81"/><path d="M179.27,133.44L179.46,133.33L178.86,133.67"/><path d="M179.46,133.33L180.64,132.66L179.53,133.29"/><path d="M180.43,138.20L180.21,137.97"/><path d="M180.64,132.66L181.11,132.39"/><path d="M184.42,123.49L183.25,124.36L182.03,125.62L180.96,127.07L180.16,128.55L179.88,129.41"/><path d="M179.98,128.16L180.06,127.68L180.36,126.92L180.84,126.10L181.44,125.32L182.10,124.64L182.77,124.14L183.28,123.90L182.48,124.50L181.65,125.35L180.90,126.33L180.31,127.34L179.93,128.30L179.80,129.09L179.86,129.34"/><path d="M181.15,151.96L181.20,151.99"/><path d="M181.25,132.21L181.13,132.34"/><path d="M181.15,132.30L181.21,132.18L181.26,131.97"/><path d="M181.22,132.14L181.21,131.94"/><path d="M181.03,131.58L181.05,131.61L181.03,131.58"/><path d="M181.22,132.04L181.20,131.99"/><path d="M181.22,132.05L181.15,131.91L181.05,131.61"/><path d="M183.28,123.90L183.32,123.87L184.07,123.51L184.39,123.49"/><path d="M185.91,148.89L185.07,148.39L187.29,149.72L186.18,149.05"/><path d="M184.77,141.64L184.75,141.62"/><path d="M184.46,134.53L184.34,134.54L184.45,134.56"/><path d="M184.34,134.54L184.20,134.57"/><path d="M189.35,147.77L188.78,148.63L188.55,149.65L188.55,150.24L188.57,150.37L188.64,150.49L188.76,150.59L186.60,149.16L186.75,149.23L186.91,149.26L187.08,149.24L187.23,149.19L187.35,149.09L188.52,147.32L188.94,145.33L188.93,145.09L191.87,146.66L191.34,146.70L190.26,147.09L189.38,147.74"/><path d="M187.29,149.72L188.40,150.38L187.29,149.72"/><path d="M196.15,161.15L196.65,161.40L188.59,156.90"/><path d="M188.61,157.25L188.61,157.23"/><path d="M188.79,157.49L188.82,157.52"/><path d="M188.71,150.56L188.40,150.38L198.83,156.65L200.07,157.05L201.40,157.13L202.70,156.89L203.86,156.33L210.16,152.17L210.27,152.06L210.35,151.92L210.35,151.77L210.35,150.74L210.29,150.56L210.18,150.44L208.22,148.92L211.34,146.86L210.56,147.37"/><path d="M188.76,150.59L196.13,154.86L196.28,154.91L196.45,154.93L196.61,154.89L196.75,154.82L196.86,154.71L197.55,153.38L197.85,151.95L197.85,151.37L197.77,150.42L198.82,151.24L199.87,151.85L200.35,151.98L198.16,154.78L198.10,154.95L198.10,155.66L198.14,155.79L198.23,155.90L198.35,155.98L196.15,154.87"/><path d="M188.93,144.89L188.93,145.09"/><path d="M188.71,144.35L188.76,144.39"/><path d="M189.00,125.09L190.16,125.97L190.11,125.94"/><path d="M189.01,125.10L189.14,125.14"/><path d="M189.18,125.09L189.39,125.07"/><path d="M189.82,124.75L189.83,124.73"/><path d="M191.02,127.04L191.73,127.91"/><path d="M192.44,121.20L192.51,121.11L191.67,122.24L191.54,122.14"/><path d="M191.67,122.24L191.55,122.41"/><path d="M198.28,120.70L195.23,118.93L191.67,116.16L191.56,116.06L191.51,115.93L191.51,115.78"/><path d="M191.50,115.79L191.50,114.95"/><path d="M191.87,146.66L192.26,146.63"/><path d="M192.51,121.11L192.89,120.58"/><path d="M195.38,157.96L195.38,156.52L193.93,155.74"/><path d="M194.82,122.36L193.92,123.98L194.81,124.67L196.06,125.30"/><path d="M193.92,123.98L193.76,124.26"/><path d="M192.83,120.68L192.97,120.48"/><path d="M194.65,147.38L194.65,147.38"/><path d="M195.38,156.52L198.44,158.17L199.90,158.64L201.46,158.74L202.65,158.52"/><path d="M196.02,118.89L201.03,121.43L200.92,121.33L200.84,121.22L200.81,121.09L200.81,120.49L200.84,120.33L201.70,118.72L203.00,117.56L200.44,115.93L200.45,116.19L200.40,116.32L200.31,116.43L198.92,117.44L197.27,118.13L195.47,118.47L195.32,118.46L195.18,118.43L195.06,118.35L195.23,118.49L196.02,118.89"/><path d="M196.92,161.55L196.65,161.40"/><path d="M197.10,149.28L197.57,149.65L197.67,149.75L197.73,149.92L197.77,150.42"/><path d="M207.29,160.09L204.30,162.07L202.97,162.71L201.47,162.99L199.94,162.90L198.51,162.43L198.13,162.22L198.12,162.51"/><path d="M198.13,162.55L198.12,162.41"/><path d="M198.10,155.38L198.10,155.08"/><path d="M197.75,150.18L199.17,151.28L201.09,148.70"/><path d="M202.02,122.87L198.31,120.72"/><path d="M199.32,151.39L199.30,151.38"/><path d="M198.98,146.21L199.14,145.95L199.23,145.73L199.22,145.74L199.23,145.66L199.21,145.55"/><path d="M199.09,146.04L198.71,146.67"/><path d="M199.22,145.74L199.16,145.90"/><path d="M200.35,151.98L200.37,151.95"/><path d="M202.37,148.59L201.96,148.45L202.21,148.61L202.52,148.71L202.67,148.63L202.71,148.40L202.71,148.33L202.65,147.97L202.47,147.41L202.07,146.57L201.53,145.79L200.82,145.14L200.13,144.79L200.35,144.24L201.15,142.76L201.54,142.22L202.22,141.30L203.44,140.04L204.66,139.13L205.18,138.91L205.74,138.68L206.54,138.73"/><path d="M200.44,115.93L200.44,115.85"/><path d="M200.27,115.20L200.25,115.18"/><path d="M201.21,148.59L201.18,148.63"/><path d="M200.84,127.82L204.61,130.36L204.60,130.35"/><path d="M201.98,148.43L201.86,148.42"/><path d="M201.90,148.43L201.96,148.45"/><path d="M220.13,138.91L220.14,138.89L220.06,139.27L219.64,138.15L218.71,137.14L212.68,132.46L205.11,124.66L202.06,122.89"/><path d="M203.87,162.80L203.84,162.82"/><path d="M210.17,141.55L209.37,141.50L208.29,141.95L207.07,142.86L205.85,144.12L204.80,145.56L203.98,147.06L203.54,148.39L203.48,148.99L203.55,149.48L203.99,150.04"/><path d="M203.00,117.56L203.12,117.46"/><path d="M204.34,148.95L204.20,148.35L204.34,147.50L204.67,146.67L204.75,146.49L205.38,145.40L206.18,144.36L207.07,143.45L207.96,142.77L208.30,142.61L208.77,142.39L209.40,142.34L209.81,142.63L209.96,143.23L209.82,144.08L209.41,145.10L208.77,146.18L208.54,146.52L207.97,147.23L207.08,148.13L206.85,148.31L206.19,148.81L205.39,149.19L204.75,149.24L204.34,148.95"/><path d="M204.61,130.36L208.63,133.95L208.71,134.04"/><path d="M210.36,158.07L207.24,160.13L207.38,160.03"/><path d="M206.70,156.25L209.14,158.15"/><path d="M209.85,141.30L206.70,138.84"/><path d="M206.90,138.94L206.72,138.85"/><path d="M206.78,138.84L206.89,138.84"/><path d="M211.93,124.26L211.93,124.53L211.54,125.45L210.84,126.23L209.89,126.80L208.77,127.11L208.59,127.11L208.42,127.05L208.29,126.96L212.68,132.02L212.78,132.10L212.70,132.01L212.64,131.90L212.44,130.61L212.44,130.02L212.69,128.73L212.70,128.69L213.37,127.50L214.35,126.57L214.44,126.50"/><path d="M208.46,140.20L208.37,140.13"/><path d="M210.00,141.14L209.90,141.24"/><path d="M211.34,146.86L212.78,145.91L211.68,146.63"/><path d="M213.24,136.09L211.17,136.98"/><path d="M212.28,155.61L212.42,155.70L213.25,155.74L214.18,155.47L215.25,154.84L216.41,154.03L216.61,153.86L217.67,152.75L218.38,151.76L218.90,150.67L219.05,149.84L218.85,149.14L218.38,148.80L217.54,148.76L216.61,149.03L215.46,149.58L214.40,150.44L214.18,150.64L213.12,151.76L212.42,152.75L211.90,153.84L211.75,154.67L211.94,155.36L212.28,155.61"/><path d="M211.93,155.33L212.22,155.56"/><path d="M212.78,145.91L214.99,144.44"/><path d="M214.40,126.53L211.93,124.28"/><path d="M211.93,124.39L211.93,124.39"/><path d="M215.02,138.26L213.47,139.16L217.54,142.31L218.48,141.69"/><path d="M213.47,139.16L213.19,139.32"/><path d="M212.78,132.10L212.79,132.11"/><path d="M216.54,143.42L216.54,144.30L216.60,144.45L216.66,144.52L216.70,144.56L218.65,146.08L218.77,146.15L218.92,146.19L219.07,146.19L219.21,146.16L219.34,146.10L223.47,143.37L224.34,142.60L224.92,141.66L225.15,140.62L225.15,139.59L225.03,138.54L224.70,137.86"/><path d="M217.54,142.31L217.27,142.49"/><path d="M217.51,135.77L217.37,135.66L217.50,135.73L217.65,135.77L217.81,135.77L217.96,135.73L219.54,134.78L220.64,133.45L220.68,133.31L220.68,133.14L222.07,134.85L221.14,135.10L220.22,135.59L219.44,136.26L219.37,136.38L219.32,136.55L219.32,137.14L219.34,137.27L219.41,137.39L218.71,136.70L217.51,135.77"/><path d="M224.76,148.35L223.89,149.11L218.68,152.56"/><path d="M219.34,152.57L219.31,152.59"/><path d="M219.94,139.92L219.36,140.91L219.07,141.16L219.29,140.71"/><path d="M219.07,141.16L218.46,141.70"/><path d="M219.27,140.76L219.31,139.75"/><path d="M220.06,139.27L219.93,139.93"/><path d="M220.68,133.14L220.68,133.00"/><path d="M225.93,145.11L225.66,146.33L224.98,147.44L223.95,148.35L221.65,149.87L221.65,146.36L223.96,144.84L224.98,143.93L225.44,143.18"/><path d="M222.07,134.85L222.19,134.82"/></g><g style="stroke:#000000;stroke-width:0.353"><path d="M181.15,151.96L176.10,147.50L176.02,147.38L175.97,147.20L175.96,146.83L174.31,145.22L174.19,145.25L174.04,145.26L173.90,145.22L173.78,145.15L173.70,145.09L171.83,143.05L171.44,142.41L171.19,142.16L170.55,141.09L170.52,141.00L170.36,139.80L170.35,139.15L170.45,138.56L170.44,136.48L170.32,135.63L170.31,134.97L170.65,133.79"/><path d="M178.23,128.89L177.83,128.67L177.32,128.33L175.58,126.98L175.29,127.00L174.83,126.67L174.44,126.37L174.28,125.70L174.44,124.72L170.32,121.52L170.20,121.03L170.31,120.34L170.63,119.52L171.00,118.89L171.15,118.64L171.80,117.79L172.52,117.05L173.24,116.51L173.90,116.20L174.42,116.17L174.76,116.40L178.60,119.39L179.40,119.01L180.12,118.96L180.59,119.29L180.97,119.58L181.06,119.92L182.70,121.20L183.21,121.65L183.74,122.25L184.13,122.83L184.22,123.03L184.35,123.27L184.39,123.49L184.42,123.49L184.47,123.45L185.54,123.00L186.35,123.06L189.00,125.09L189.18,125.09L189.32,125.07L189.52,124.99L189.69,124.87L189.82,124.75L191.55,122.41L191.54,122.14L190.79,121.56L190.64,121.40L190.56,121.22L190.53,121.13L190.50,116.08L190.59,115.80L190.73,115.64L191.50,114.95L191.50,114.76L191.51,114.72L191.56,114.59L191.65,114.48L192.54,113.68L193.31,113.17L194.18,112.87L195.11,112.78L196.04,112.91L196.89,113.24L200.25,115.18"/><path d="M178.33,128.94L178.82,129.12L179.40,129.28L179.86,129.34L179.88,129.41L179.73,129.88L179.67,130.49L179.73,130.98L180.18,131.53L181.15,132.30L181.12,132.35L180.91,132.50L177.52,134.44L177.13,134.14L177.13,134.01L177.11,133.84L177.05,133.72L176.96,133.62L173.65,131.05L173.50,130.96L173.36,130.93L173.21,130.93L173.07,130.98L172.92,131.07L172.02,131.87L171.37,132.69L171.32,132.90L170.67,133.71"/><path d="M177.32,128.33L177.82,128.67"/><path d="M194.65,147.38L197.10,149.28L199.02,146.15L199.13,145.97L199.16,145.90L196.75,142.89L193.00,139.51L188.81,136.73L184.20,134.57L184.07,134.61L179.51,136.61L180.99,138.31L184.77,141.64L188.71,144.35"/><path d="M181.20,151.99L186.68,156.09L186.81,156.15L186.95,156.18L187.10,156.16L187.24,156.11L187.35,156.03L188.27,156.72L188.59,156.90L188.59,157.11L188.61,157.23"/><path d="M198.13,162.53L198.12,162.22L196.92,161.55L196.88,161.62L196.77,161.72L196.62,161.81L196.47,161.84L196.32,161.83L196.18,161.78L188.82,157.52"/><path d="M188.61,157.25L188.67,157.38L188.79,157.49"/><path d="M188.76,144.39L188.85,144.48L188.90,144.59L188.93,144.75L188.93,144.88L192.26,146.63L192.51,146.61L193.65,146.85L194.65,147.38"/><path d="M201.06,128.36L205.14,131.15L208.35,133.92L208.49,134.01L208.63,134.04L208.71,134.04L211.17,136.98L206.98,138.78L206.78,138.84L206.70,138.84L206.54,138.73L206.08,138.47L201.52,136.35L197.33,133.57L193.58,130.18L191.73,127.91L193.76,124.26L195.10,125.29L195.23,125.37L195.36,125.41L195.49,125.41L196.06,125.30L200.02,127.27L200.83,127.81L200.83,127.97L200.87,128.13L200.92,128.24L201.01,128.32"/><path d="M203.84,162.82L202.70,163.36L201.42,163.61L200.11,163.53L198.88,163.13L198.40,162.90L198.29,162.83L198.19,162.72L198.13,162.55"/><path d="M199.48,151.48L199.32,151.39L199.17,151.28L201.05,148.77L201.18,148.63L201.34,148.52L201.44,148.48L201.54,148.44L201.76,148.41L201.90,148.43L203.99,150.04L204.79,150.09L205.87,149.63L207.08,148.72L208.30,147.46L208.34,147.41L209.37,146.01L210.18,144.53L210.61,143.20L210.68,142.59L210.61,142.10L210.17,141.55L209.85,141.30L209.86,141.28L209.90,141.24L209.96,141.20L213.18,139.32L217.27,142.49L216.74,142.84L216.63,142.95L216.55,143.13L216.54,143.42L216.10,143.71L208.22,148.92L208.10,148.85L207.97,148.81L207.83,148.81L207.70,148.83L207.59,148.89L204.70,150.79L203.59,151.34L202.34,151.59L200.92,151.54L200.80,151.57L200.69,151.61L200.57,151.71L200.38,151.95L200.18,151.89L199.48,151.48"/><path d="M200.27,115.20L200.37,115.30L200.44,115.47L200.44,115.85L203.12,117.46L203.17,117.42L203.31,117.35L203.46,117.33L203.62,117.36L203.76,117.42L208.48,120.86L211.78,123.53L211.87,123.64L211.93,123.81L211.93,124.26L214.44,126.50L214.54,126.45L214.68,126.42L214.82,126.42L214.95,126.46L215.06,126.52L215.13,126.57L220.58,132.39L220.66,132.53L220.67,132.57L220.68,132.72L220.68,133.00L222.19,134.82L222.32,134.82L222.47,134.85L222.62,134.94L222.70,135.02L224.53,137.52L224.70,137.86L225.20,138.46L225.76,139.61L225.79,139.70L225.94,140.94L225.94,141.60L225.66,142.82L225.44,143.18L225.78,143.87L225.93,145.11L225.93,145.77L225.63,147.08L224.96,148.18L224.77,148.35L224.32,149.08L223.45,149.85L219.34,152.57"/><path d="M219.30,152.59L219.19,152.65L219.06,152.67L218.92,152.67L218.79,152.63L218.68,152.57L210.56,157.93L210.36,158.07L210.36,158.35L210.34,158.39L210.28,158.53L210.16,158.64L203.87,162.80"/></g></g><g id="Actor_6.0"><g style="stroke:#000000;stroke-width:0.176"><path d="M94.42,42.77L94.44,42.72"/><path d="M112.33,58.99L106.85,53.48L100.92,48.89L99.93,47.84L99.24,46.50L99.05,45.55L98.94,45.02L99.05,43.58L99.57,42.34L100.57,40.81L100.63,40.66L100.64,40.49L100.61,40.32L100.53,40.16L100.41,40.04L98.50,38.56L98.39,38.49L98.27,38.46L98.15,38.48L97.18,38.82"/><path d="M97.89,51.04L98.16,50.95L98.88,50.48L99.46,49.79L99.86,48.92L99.88,48.78L99.87,48.62L99.82,48.47L99.74,48.35L100.46,49.04L101.78,50.07L101.66,50.00L101.54,49.98L101.41,50.00L100.80,50.21L100.66,50.30L99.71,51.61L99.37,52.77"/><path d="M100.18,34.20L100.25,34.09"/><path d="M102.15,31.17L102.17,31.25L102.24,31.40L102.35,31.51L104.26,32.99L104.40,33.07L104.52,33.09L104.68,33.08L105.60,32.76L105.75,32.71L105.86,32.65L105.94,32.56L107.63,29.97L108.32,29.21L108.60,29.06L108.13,29.11"/><path d="M102.15,30.94L102.16,30.91"/><path d="M103.53,39.36L103.41,39.31L103.27,38.87L103.46,38.06L103.53,37.87L104.03,36.88L104.88,35.88L105.78,34.92L106.89,33.96L107.16,33.77L107.86,33.29L108.83,32.82L109.50,32.69L109.98,32.89L110.12,33.33L109.93,34.14L109.86,34.30L109.26,35.23L108.51,36.32L107.60,37.28L106.50,38.24L105.53,38.90L104.56,39.38L103.89,39.50L103.53,39.36"/><path d="M107.10,46.38L106.98,46.64L106.70,46.42L105.86,45.53L105.28,44.40L105.02,43.15L105.12,41.93L105.53,40.96L105.52,40.97"/><path d="M106.04,59.73L106.24,59.66L106.34,59.61L106.42,59.51L106.95,58.24L107.14,56.78L106.97,55.25L106.45,53.78L106.38,53.66L106.28,53.56L106.39,53.64L111.17,58.91L111.04,58.82L110.90,58.79L110.76,58.81L110.15,59.02"/><path d="M105.53,40.96L107.41,38.07"/><path d="M105.88,41.01L105.87,41.04"/><path d="M108.25,47.62L108.35,47.70L106.75,49.81"/><path d="M116.06,33.42L117.02,33.53L117.96,33.27L118.57,33.06L119.30,32.45L119.80,31.56L120.01,30.48L119.90,29.32L119.84,29.17L119.76,29.04L119.64,28.94L119.69,28.97L110.79,23.67L109.73,23.37L108.68,23.46L107.61,23.83L106.68,24.29L106.64,24.31L106.58,24.37L106.69,24.21"/><path d="M106.58,24.37L106.54,24.43"/><path d="M108.40,61.87L108.42,61.36L108.76,60.33L109.33,59.55L110.10,59.05"/><path d="M108.35,47.70L108.45,47.56"/><path d="M108.60,29.06L109.23,28.98L109.84,28.77L109.94,28.72L110.02,28.64L110.08,28.54L111.08,24.66L111.08,24.51L111.05,24.36L110.98,24.22L110.88,24.10L110.76,24.03L112.79,25.01L112.65,24.97L112.52,24.98L111.91,25.19L111.75,25.28L111.66,25.38L111.60,25.56L111.44,27.17L111.60,28.84L111.85,29.66L111.72,29.56L110.75,29.00L109.78,28.79"/><path d="M116.20,68.66L108.79,63.01"/><path d="M109.18,51.09L111.11,49.19"/><path d="M110.74,49.55L112.65,51.03L116.47,55.36L117.13,55.94"/><path d="M109.93,45.20L111.44,46.38L111.06,45.72L111.10,44.89L111.11,44.65L111.56,43.30L112.38,41.82L113.46,40.39L114.68,39.17L115.17,38.79L114.41,38.40L113.76,37.78L113.38,37.11L113.28,36.46L113.40,36.08L113.62,35.89L113.68,35.87L114.05,35.83L114.50,35.94L114.51,35.95L114.49,36.01"/><path d="M109.82,45.76L109.84,45.72"/><path d="M109.94,45.22L109.94,45.21"/><path d="M109.76,34.44L110.23,33.73L109.87,34.28"/><path d="M110.23,33.73L110.89,32.72"/><path d="M110.82,32.82L111.03,32.50"/><path d="M110.47,29.29L110.48,29.29L109.75,29.38L109.77,29.38"/><path d="M110.48,29.29L111.30,29.47L111.23,29.44"/><path d="M113.13,47.20L111.91,46.64L111.44,46.38"/><path d="M111.85,29.66L112.09,30.48L112.16,30.61L112.22,30.68"/><path d="M111.30,29.47L111.89,29.81"/><path d="M111.30,22.44L111.93,22.61L118.53,26.09L121.65,25.02L121.55,25.23L118.73,26.20L119.05,26.36L125.92,30.93L136.03,39.64L139.69,38.36L129.58,29.67L122.71,25.10L115.60,21.35L114.35,21.01L113.12,21.11"/><path d="M124.30,73.09L124.50,73.08L125.20,72.85L126.27,72.48L126.86,72.00L127.30,71.32L127.77,70.28L127.81,70.13L127.81,69.98L127.77,69.82L127.69,69.68L127.58,69.57L124.06,66.83L114.84,61.50L112.37,59.02"/><path d="M114.20,52.72L112.96,51.35L112.90,51.31"/><path d="M119.64,28.94L112.79,25.01"/><path d="M114.60,35.62L114.55,35.84L114.51,35.95L114.39,36.05"/><path d="M114.45,36.00L114.31,36.04L114.22,36.06"/><path d="M114.42,36.01L114.33,36.00"/><path d="M115.11,32.92L115.15,32.94"/><path d="M115.24,32.99L115.38,33.06"/><path d="M116.10,24.81L117.54,24.31L117.45,24.26L116.25,24.00L115.09,24.14L114.94,24.20"/><path d="M115.42,33.08L116.02,33.39"/><path d="M118.31,22.17L116.46,21.15L116.38,21.11L116.28,21.08L116.36,21.07L116.35,21.07"/><path d="M119.63,70.24L120.39,68.94L121.47,67.92L122.81,67.26L123.42,67.05L123.53,67.03L123.65,67.06L123.77,67.12L123.60,66.99L118.30,64.36L118.42,64.45L118.51,64.57L118.56,64.72L118.59,64.87L118.37,66.85L117.61,68.55L117.51,68.65L117.28,68.73L119.63,70.24L119.59,70.31"/><path d="M117.28,68.73L117.21,68.76"/><path d="M117.39,68.70L117.37,68.70"/><path d="M117.40,37.96L117.40,37.84L117.49,38.07"/><path d="M117.40,37.84L117.41,37.79"/><path d="M117.80,38.10L117.54,37.97L117.41,37.86L117.49,37.99"/><path d="M117.43,33.43L120.27,34.92L120.08,32.94L120.48,30.75L120.56,30.59L120.70,30.48L121.44,30.23L121.57,30.24L121.70,30.30L119.69,28.97L120.79,29.62L119.69,28.97"/><path d="M117.02,33.53L117.96,34.02"/><path d="M116.36,21.07L116.46,21.06"/><path d="M117.65,56.40L120.61,59.02L125.04,62.00L124.98,61.98"/><path d="M118.53,26.09L118.73,26.20"/><path d="M121.65,25.02L119.75,23.55L117.54,24.31"/><path d="M119.23,22.67L125.87,26.32L127.17,27.28"/><path d="M120.27,34.92L120.30,35.22"/><path d="M120.79,29.62L121.90,30.28L121.43,30.00"/><path d="M121.55,25.23L138.90,38.64"/><path d="M121.90,30.28L123.01,30.94L121.90,30.28"/><path d="M123.01,30.94L124.12,31.60L123.01,30.94"/><path d="M124.12,31.60L124.65,31.91L124.12,31.60"/><path d="M125.80,62.38L125.04,62.00"/><path d="M124.65,31.91L137.26,43.22L137.91,44.16L138.29,45.28L138.35,46.42L138.08,47.46L137.60,48.51L137.52,48.63L137.42,48.70L136.68,48.96"/><path d="M127.05,62.98L126.77,65.38"/><path d="M126.86,26.45L126.90,26.47"/><path d="M130.35,61.50L130.45,61.11L127.79,59.05L127.54,58.78"/><path d="M128.17,41.58L128.21,41.59"/><path d="M127.54,27.55L134.82,32.92L143.11,40.82L143.90,41.96L144.35,43.30L144.42,44.67L144.09,45.92L143.85,46.46"/><path d="M128.11,27.93L128.27,28.03"/><path d="M131.25,71.54L131.98,70.96L132.33,70.48L129.02,71.65"/><path d="M129.70,64.28L129.21,66.38"/><path d="M129.14,41.53L129.76,41.39L130.37,41.18L131.47,40.52L132.36,39.54L132.42,39.40L132.44,39.24L132.42,39.08L132.35,38.92L132.24,38.79L134.78,41.26L134.65,41.17L134.51,41.13L134.36,41.14L133.73,41.36L133.58,41.46L133.51,41.57L132.76,43.70L132.49,45.44L129.02,41.56L129.14,41.53"/><path d="M129.02,41.56L128.93,41.58"/><path d="M133.23,69.91L133.28,69.84L133.94,68.37L133.97,68.30L134.02,68.11L134.02,67.91L133.97,67.72L133.87,67.52L133.72,67.37L130.22,64.65"/><path d="M130.39,61.30L130.45,61.11"/><path d="M131.38,61.82L131.00,61.17L131.04,60.10L131.50,58.75L132.32,57.27L133.41,55.83L134.63,54.62L135.84,53.77L136.45,53.49L136.98,53.37L137.74,53.53"/><path d="M132.82,61.28L132.06,60.69L131.87,60.17L131.94,59.41L132.27,58.48L132.82,57.47L133.54,56.48L134.36,55.61L135.20,54.94L135.97,54.54L136.31,54.49L136.61,54.45L137.05,54.67L137.81,55.26L137.37,55.03L136.73,55.13L135.96,55.53L135.12,56.20L134.30,57.07L133.78,57.78L133.58,58.06L133.03,59.07L132.70,60.00L132.63,60.76L132.82,61.28L133.26,61.50L133.42,61.48L133.38,61.12L133.44,61.50L133.56,61.82"/><path d="M131.40,50.01L131.57,49.89L131.45,49.92"/><path d="M131.57,49.89L131.83,49.64"/><path d="M132.49,45.44L132.49,45.45"/><path d="M136.72,64.97L136.65,64.79L136.74,63.88L136.84,63.58L136.85,62.54L135.14,61.21L134.63,60.87L134.09,60.66L133.70,60.66L133.47,60.82L133.38,61.12"/><path d="M133.47,60.53L133.60,59.95L133.86,59.20L134.30,58.40L134.88,57.60L135.54,56.91L136.21,56.37L136.93,55.98L136.16,56.54L135.38,57.29L134.80,57.98L134.29,58.72L133.79,59.66L133.47,60.53L133.39,61.11L133.43,60.95"/><path d="M133.44,60.77L133.32,60.68L133.17,60.26L133.22,59.65L133.48,58.91L133.92,58.10L134.50,57.31L135.16,56.61L135.83,56.08L136.45,55.76L136.96,55.68L137.25,55.83L137.49,55.72L137.23,55.88L137.11,56.15L137.17,56.52L137.48,57.00L137.98,57.47L139.70,58.79L140.66,58.51L139.64,59.32L138.65,60.36L137.80,61.54L137.09,62.20L136.96,62.30L135.25,60.97L134.75,60.43L134.45,59.73L134.39,59.06L134.53,58.48L134.80,57.98L135.23,57.56L135.80,57.28L136.48,57.18L137.21,57.32L136.95,57.27"/><path d="M133.96,47.51L135.89,49.00L136.04,49.08L136.17,49.11L136.35,49.07L136.58,48.99"/><path d="M134.99,51.39L135.00,51.31"/><path d="M135.10,51.68L135.06,51.58L135.11,51.65"/><path d="M135.06,51.58L135.03,51.49L135.02,51.43"/><path d="M135.23,51.76L135.10,51.63"/><path d="M135.11,50.88L135.15,50.83"/><path d="M137.26,65.71L137.03,65.09L137.12,64.18L137.42,63.32L137.51,63.06L138.17,61.85L139.03,60.66L140.02,59.61L141.03,58.81L141.96,58.33L142.72,58.21L143.25,58.48"/><path d="M137.80,61.54L137.13,62.76L136.84,63.59"/><path d="M136.85,62.54L136.81,63.68"/><path d="M136.96,62.30L139.49,58.97L139.03,59.91L138.90,60.10"/><path d="M139.49,58.97L137.78,57.64L137.21,57.32"/><path d="M137.25,55.83L136.93,55.98"/><path d="M143.33,60.19L142.41,59.48L142.04,59.29L141.48,59.37L140.81,59.72L140.08,60.30L139.37,61.06L138.75,61.91L138.27,62.79L137.99,63.60L137.93,64.26L138.09,64.70L139.17,65.54"/><path d="M137.87,55.66L137.92,55.65L137.49,55.72L137.94,55.62L137.81,55.26"/><path d="M137.92,55.65L138.47,55.71"/><path d="M143.65,44.29L139.99,45.57L139.90,44.87L139.44,43.50L138.64,42.33L137.79,41.43L141.45,40.16L141.31,40.46L139.51,41.09L143.65,44.29L143.56,43.59L143.10,42.22L142.30,41.06L141.45,40.16"/><path d="M137.97,41.62L139.51,41.09"/><path d="M139.14,55.90L139.86,56.24L140.47,56.64"/><path d="M138.81,36.52L139.46,37.15"/><path d="M142.16,57.95L141.58,58.03L140.66,58.51"/><path d="M140.98,58.34L139.70,58.79"/><path d="M142.11,57.95L142.13,57.94L140.42,56.61"/><path d="M141.14,38.79L141.34,38.98"/><path d="M143.04,68.53L142.87,68.09L142.93,67.43L142.96,67.35L143.22,66.62L143.69,65.74L144.32,64.89L145.03,64.13L145.76,63.55L146.43,63.20L146.98,63.12L147.36,63.31"/><path d="M142.08,57.96L142.13,57.94L142.07,57.96"/></g><g style="stroke:#000000;stroke-width:0.353"><path d="M140.51,56.68L142.16,57.95L142.34,57.92L142.87,58.18L143.25,58.48L143.47,59.10L143.39,60.01L143.33,60.19L147.36,63.31L147.52,63.76L147.46,64.42L147.18,65.22L146.70,66.10L146.28,66.67L146.07,66.95L145.36,67.71L144.64,68.29L143.97,68.64L143.41,68.72L143.04,68.53L139.17,65.54L138.55,65.86L137.79,65.97L137.26,65.71L136.88,65.41L136.72,64.98L135.05,63.68L134.48,63.17L133.96,62.54L133.62,61.97L133.56,61.82L133.44,61.59L133.42,61.48L133.27,61.59L132.67,61.86L132.13,61.99L131.38,61.82L130.45,61.11L129.70,64.27L129.80,64.33L130.22,64.65L130.59,64.52L130.75,64.51L130.87,64.53L131.01,64.61L134.36,67.21L134.46,67.31L134.53,67.44L134.57,67.58L134.57,67.73L134.52,67.89L134.05,68.93L133.61,69.61L133.23,69.91L132.75,70.66L131.94,71.30L131.25,71.54L130.38,71.83L129.44,71.80L129.02,71.65L128.67,71.77L128.32,72.25L127.59,72.83L126.90,73.08L126.03,73.36L125.93,73.37L125.00,73.34L124.30,73.09L123.68,73.07L122.88,72.77L119.80,70.99L119.66,70.86L119.59,70.74L119.55,70.60L119.55,70.46L119.59,70.31L118.35,69.57L117.21,68.76L116.77,68.91L116.59,68.91L116.42,68.83L111.95,65.54L108.58,62.84L108.48,62.74L108.42,62.60L108.38,62.46L108.41,61.87L106.04,59.73L105.63,59.88L105.46,59.90L105.34,59.87L105.16,59.76L99.36,53.76L99.27,53.63L99.22,53.47L99.22,53.31L99.37,52.77L97.89,51.04L97.54,51.16L97.37,51.19L97.24,51.17L97.09,51.09L97.01,51.01L94.91,48.38L94.28,47.32L93.90,46.13L93.79,44.91L93.97,43.76L94.42,42.77"/><path d="M94.44,42.72L96.85,39.02L96.93,38.93L96.97,38.90L97.08,38.85L97.17,38.82L102.15,31.17L102.14,31.10L102.15,30.94"/><path d="M116.35,21.07L116.27,21.08L115.13,20.76L113.81,20.87L113.12,21.11L112.03,21.65L111.30,22.44L110.68,22.27L109.45,22.37L108.76,22.60L107.67,23.15L107.58,23.20L106.73,24.13L106.54,24.43L105.91,25.11L102.22,30.77L102.16,30.91"/><path d="M107.40,38.32L107.34,38.46L106.34,39.99L105.88,41.01L105.71,42.23L105.85,43.52L106.28,44.76L107.06,45.97L107.11,46.10L107.12,46.24L107.10,46.37"/><path d="M115.15,32.94L115.23,32.98L114.60,35.62L114.22,35.33L113.47,35.16L112.93,35.29L112.33,35.56L111.11,36.41L109.89,37.62L108.80,39.05L107.99,40.53L107.79,41.11L107.53,41.88L107.49,42.95L107.87,43.61L109.93,45.20L109.93,45.38L109.92,45.48L109.90,45.58L109.84,45.72L108.45,47.56L108.25,47.62L106.98,46.64"/><path d="M107.41,38.29L107.42,38.13L107.41,38.07L112.23,30.68L115.11,32.92"/><path d="M111.93,49.82L111.11,49.19L113.13,47.20L116.42,48.73L120.57,51.47L124.26,54.80L127.43,58.66L127.54,58.78L127.05,62.98L125.80,62.38L125.81,62.31L125.79,62.19L125.75,62.07L125.68,61.97L125.60,61.88L121.63,59.16L118.39,56.38L118.24,56.30L118.11,56.28L117.94,56.30L117.65,56.40L117.13,55.94L114.20,52.72L113.69,51.26L113.62,51.16L113.54,51.07L111.93,49.82"/><path d="M116.33,21.07L116.46,21.06"/><path d="M128.17,41.58L124.34,38.23L120.50,35.60L120.42,35.51L120.35,35.40L120.30,35.28L120.30,35.22L117.96,34.02L117.41,37.70L117.41,37.79L117.80,38.10L118.16,38.48L121.32,42.34L125.02,45.67L129.16,48.41L131.83,49.64L133.96,47.51L132.61,46.46L132.52,46.37L132.45,46.25L132.41,46.12L132.40,45.98L132.49,45.45L128.93,41.58L128.47,41.68L128.34,41.66L128.21,41.59"/><path d="M116.50,21.06L117.57,21.35L118.03,21.57L118.11,21.62L118.21,21.72L118.28,21.85L118.32,22.00L118.31,22.17L119.23,22.67L119.71,22.51"/><path d="M119.89,22.50L120.05,22.56L126.86,26.45"/><path d="M126.90,26.47L127.02,26.58L127.09,26.69L127.13,26.82L127.17,27.28L127.54,27.55L128.11,27.92L128.62,27.75L128.80,27.76L128.96,27.83L134.33,31.83L139.49,36.31L139.58,36.43L139.64,36.57L139.66,36.72L139.63,36.89"/><path d="M140.52,56.68L139.86,56.24L139.14,55.90L138.47,55.71L138.11,55.65L137.98,55.62L137.94,55.62L138.06,55.26L138.11,54.19L137.74,53.53L135.02,51.43L135.00,51.31L135.01,51.17L135.07,50.98L135.16,50.83L136.58,48.99L136.68,48.96L137.29,49.44L137.53,49.57L137.72,49.60L137.82,49.59L138.01,49.55L143.04,47.79L143.28,47.63L143.40,47.46L143.85,46.46L144.13,46.36L144.27,46.26L144.35,46.15L144.84,45.06L145.11,44.04L145.05,42.91L144.68,41.81L144.04,40.88L141.97,38.74"/><path d="M139.52,56.07L139.57,56.10"/><path d="M141.94,38.71L141.82,38.65L141.69,38.63L141.64,38.63L141.51,38.66L141.14,38.79L139.46,37.15L139.57,37.02"/><path d="M140.47,56.64L140.43,56.62"/><path d="M140.41,56.60L140.42,56.61"/></g></g><g><g/></g><g/><g/><g id="paperID" visibility="hidden" opacity="0.00" transform="scale(0.000100)"><path style="stroke:#000000;stroke-width:0.500;fill:#e6e6e6;fill-rule:evenodd" d="M-2000.00,-2000.00L2297.00,-2000.00L2297.00,2210.00L-2000.00,2210.00zM0.00,0.00L297.00,0.00L297.00,210.00L0.00,210.00z"/><path style="fill:#000000;fill-opacity:0.118" d="M3.00,210.00L297.00,210.00L297.00,3.00L300.00,3.00L300.00,213.00L3.00,213.00z"/></g><g><g><path style="stroke:#000000;stroke-width:0.353;fill:#f0f0ff" d="M91.49,170.54L146.00,170.54L146.00,174.21L91.49,174.21z"/><text xml:space="preserve" fill="#000000" stroke-width="0" x="92.90" y="173.36" font-size="2.64" opacity="1.00" font-family="MS Shell Dlg" font-weight="bold">Description</text><text xml:space="preserve" fill="#000000" stroke-width="0" x="127.98" y="173.36" font-size="2.65" opacity="1.00" font-family="MS Shell Dlg" font-weight="bold">BOM ID</text><text xml:space="preserve" fill="#000000" stroke-width="0" x="140.40" y="173.36" font-size="2.62" opacity="1.00" font-family="MS Shell Dlg" font-weight="bold">Qty</text><path style="stroke:#000000;stroke-width:0.353" d="M126.57,170.54L126.57,174.21"/><path style="stroke:#000000;stroke-width:0.353" d="M138.99,170.54L138.99,174.21"/></g><g id="Line5"><path style="stroke:#000000;stroke-width:0.353;fill:#ffffff" d="M91.49,174.21L146.00,174.21L146.00,177.88L91.49,177.88z"/><text xml:space="preserve" fill="#000000" stroke-width="0" x="92.90" y="177.03" font-size="2.76" opacity="1.00" font-family="MS Shell Dlg">0144 Pedals (Left &amp; Rigth)</text><text xml:space="preserve" fill="#000000" stroke-width="0" x="127.98" y="177.03" font-size="2.48" opacity="1.00" font-family="MS Shell Dlg">5</text><text xml:space="preserve" fill="#000000" stroke-width="0" x="140.40" y="177.03" font-size="2.48" opacity="1.00" font-family="MS Shell Dlg">1</text><path style="stroke:#000000;stroke-width:0.353" d="M126.57,174.21L126.57,177.88"/><path style="stroke:#000000;stroke-width:0.353" d="M138.99,174.21L138.99,177.88"/></g><g id="Line6"><path style="stroke:#000000;stroke-width:0.353;fill:#f0f0ff" d="M91.49,177.88L146.00,177.88L146.00,181.55L91.49,181.55z"/><text xml:space="preserve" fill="#000000" stroke-width="0" x="92.90" y="180.70" font-size="2.76" opacity="1.00" font-family="MS Shell Dlg">0144 Pedals (Left &amp; Rigth)</text><text xml:space="preserve" fill="#000000" stroke-width="0" x="127.98" y="180.70" font-size="2.48" opacity="1.00" font-family="MS Shell Dlg">6</text><text xml:space="preserve" fill="#000000" stroke-width="0" x="140.40" y="180.70" font-size="2.48" opacity="1.00" font-family="MS Shell Dlg">1</text><path style="stroke:#000000;stroke-width:0.353" d="M126.57,177.88L126.57,181.55"/><path style="stroke:#000000;stroke-width:0.353" d="M138.99,177.88L138.99,181.55"/></g><g><path style="stroke:#000000;stroke-width:0.353;fill:#f0f0ff" d="M151.00,170.54L205.52,170.54L205.52,174.21L151.00,174.21z"/><text xml:space="preserve" fill="#000000" stroke-width="0" x="152.41" y="173.36" font-size="2.64" opacity="1.00" font-family="MS Shell Dlg" font-weight="bold">Description</text><text xml:space="preserve" fill="#000000" stroke-width="0" x="187.49" y="173.36" font-size="2.65" opacity="1.00" font-family="MS Shell Dlg" font-weight="bold">BOM ID</text><text xml:space="preserve" fill="#000000" stroke-width="0" x="199.92" y="173.36" font-size="2.62" opacity="1.00" font-family="MS Shell Dlg" font-weight="bold">Qty</text><path style="stroke:#000000;stroke-width:0.353" d="M186.08,170.54L186.08,174.21"/><path style="stroke:#000000;stroke-width:0.353" d="M198.51,170.54L198.51,174.21"/></g><g id="Line13"><path style="stroke:#000000;stroke-width:0.353;fill:#ffffff" d="M151.00,174.21L205.52,174.21L205.52,177.88L151.00,177.88z"/><text xml:space="preserve" fill="#000000" stroke-width="0" x="152.41" y="177.03" font-size="2.76" opacity="1.00" font-family="MS Shell Dlg">0198 Crank Arm right</text><text xml:space="preserve" fill="#000000" stroke-width="0" x="187.49" y="177.03" font-size="2.48" opacity="1.00" font-family="MS Shell Dlg">13</text><text xml:space="preserve" fill="#000000" stroke-width="0" x="199.92" y="177.03" font-size="2.48" opacity="1.00" font-family="MS Shell Dlg">1</text><path style="stroke:#000000;stroke-width:0.353" d="M186.08,174.21L186.08,177.88"/><path style="stroke:#000000;stroke-width:0.353" d="M198.51,174.21L198.51,177.88"/></g></g><g id="hotspot.0" onmouseover="ShowHotSpot(evt,'0')" onmouseout="HideHotSpot(evt,'0')" onmousemove="ShowToolTip(evt,'0',&quot;Hotspot 8&quot;)" opacity="0"><path style="fill:#ff8000;fill-rule:evenodd" d="M118.01,21.38L118.52,22.15L119.01,22.45L120.05,22.39L126.74,26.26L127.24,27.29L127.73,27.57L129.05,27.80L133.65,31.15L139.34,35.98L139.82,37.30L140.85,38.33L141.88,38.58L144.18,40.90L144.95,42.44L144.95,44.58L144.62,45.54L143.86,46.31L143.39,47.39L138.19,49.40L137.50,49.41L136.63,48.85L135.16,50.74L135.19,51.41L137.25,52.97L138.03,53.98L138.19,55.36L139.30,55.79L142.91,58.09L143.43,58.86L143.39,60.14L145.20,61.44L147.55,63.49L147.54,64.08L146.23,66.65L144.34,68.35L142.90,68.36L139.30,65.52L137.24,65.55L136.25,64.49L134.19,62.70L133.40,61.46L132.82,61.70L131.59,61.71L130.59,61.17L130.29,61.47L129.78,64.26L131.10,64.50L134.42,67.10L134.44,67.95L133.92,68.97L132.40,70.79L131.02,71.46L128.68,71.69L128.04,72.33L126.65,73.00L124.41,72.99L123.11,72.75L120.02,70.96L119.06,69.87L117.26,68.64L116.21,68.63L108.50,62.72L108.02,61.40L106.44,59.89L105.96,59.65L105.18,59.65L100.82,55.26L99.79,53.98L99.52,53.73L99.27,52.44L97.99,50.94L96.95,50.92L94.37,47.33L93.77,44.77L94.29,42.95L96.90,38.88L102.08,31.23L102.84,29.68L106.34,24.45L108.24,22.76L109.69,22.16L111.47,22.17L112.60,21.22L113.28,20.86L115.16,20.61zM196.80,113.03L199.89,114.82L200.67,115.84L202.72,117.13L204.01,117.38L211.74,123.25L212.21,124.32L213.76,125.85L215.03,126.38L216.08,127.39L217.36,128.93L220.19,131.74L220.94,133.30L221.94,134.36L222.70,134.88L223.27,135.60L225.82,139.46L225.82,142.13L225.48,143.05L225.82,143.82L225.81,146.24L225.55,147.00L224.67,148.43L223.51,149.58L219.68,152.17L218.53,152.56L210.64,157.76L210.12,158.52L203.39,162.83L201.86,163.35L200.13,163.35L198.58,162.85L198.06,162.09L197.09,161.56L196.02,161.57L188.86,157.43L188.08,156.41L186.54,155.90L179.88,150.74L176.28,147.41L174.50,145.35L172.69,143.81L170.87,141.53L170.61,141.03L170.34,134.67L171.67,132.13L172.83,130.98L173.70,130.99L176.79,133.30L177.31,134.10L177.95,134.08L180.90,132.34L180.93,132.04L179.87,131.00L179.84,129.18L177.57,128.41L175.50,126.89L174.47,126.38L174.23,124.57L172.16,122.79L170.37,121.50L170.35,120.03L171.92,117.50L173.35,116.37L173.87,116.09L174.47,116.09L176.27,117.40L178.07,118.93L180.39,118.92L181.16,119.95L182.97,121.22L184.42,123.14L186.55,123.03L188.87,124.84L189.51,124.85L191.44,122.35L191.20,121.73L190.64,121.24L190.61,115.66L191.59,114.58L193.20,113.11L193.88,112.76L196.04,112.77zM115.20,32.94L114.65,35.35L112.76,35.24L111.75,35.76L109.19,38.34L107.71,41.23L107.70,43.24L109.81,45.01L109.81,45.60L108.47,47.41L108.01,47.33L107.14,46.62L106.70,45.27L106.18,44.25L105.91,43.48L105.92,40.72L109.55,34.60L112.23,30.61zM120.58,35.49L122.86,37.06L126.46,39.88L128.01,41.41L129.04,41.66L132.15,44.97L132.63,46.29L133.93,47.29L132.01,49.38L131.60,49.40L128.51,47.84L124.69,45.25L121.10,41.90L118.02,38.31L117.47,37.80L117.47,37.15L117.91,33.95L118.23,33.92zM115.43,48.09L121.33,51.94L122.64,53.20L124.16,54.50L127.53,58.61L127.00,62.80L126.19,62.47L125.18,61.44L120.84,58.33L118.52,56.29L117.46,56.07L116.99,55.77L115.71,54.23L114.13,52.47L113.40,50.88L111.23,49.17L111.30,48.71L113.04,47.29L113.63,47.29zM195.02,125.08L196.56,125.34L200.14,127.15L200.93,128.16L206.32,132.01L208.87,134.07L210.96,136.67L210.93,136.97L207.51,138.46L206.29,138.46L200.64,135.63L196.82,133.04L193.23,129.70L191.89,127.93L192.09,127.16L193.66,124.31L193.96,124.29zM189.35,136.91L194.00,140.22L196.03,142.04L199.11,145.60L197.21,148.99L196.83,148.98L194.49,147.18L193.48,146.65L192.17,146.42L189.12,144.85L188.59,144.09L184.25,140.99L181.40,138.45L180.90,138.17L179.84,136.88L179.76,136.41L183.89,134.58L184.48,134.57zM217.09,142.27L216.47,143.31L208.90,148.32L207.75,148.71L206.03,149.82L203.15,151.30L199.88,151.57L199.27,151.01L201.33,148.44L202.20,148.44L203.74,149.73L205.21,149.76L206.19,149.20L208.38,147.29L210.15,144.43L210.67,142.90L210.69,142.03L210.13,141.50L210.06,141.04L213.26,139.22z"/></g><g id="hotspot.1" onmouseover="ShowHotSpot(evt,'1')" onmouseout="HideHotSpot(evt,'1')" onmousemove="ShowToolTip(evt,'1',&quot;0198 Crank Arm right&quot;)" opacity="0"><path style="fill:#00ff00;fill-rule:evenodd" d="M151.00,174.21L151.00,177.88L205.52,177.88L205.52,174.21zM160.35,68.63L161.13,69.64L161.13,72.32L160.10,74.62L158.19,77.33L131.24,100.95L129.43,102.48L125.45,106.72L108.53,131.37L106.62,132.81L106.19,135.46L105.59,136.65L104.05,138.96L102.10,141.12L99.96,142.57L97.18,142.57L91.06,137.66L90.52,136.92L90.25,136.14L90.26,135.20L90.51,133.90L91.99,131.01L93.50,129.18L96.35,126.38L98.92,124.59L100.82,123.15L102.07,121.58L119.55,96.45L123.53,92.21L125.33,90.68L148.04,70.78L153.07,66.57L154.61,65.79L156.51,65.79z"/></g><g id="hotspot.2" onmouseover="ShowHotSpot(evt,'2')" onmouseout="HideHotSpot(evt,'2')" onmousemove="ShowToolTip(evt,'2',&quot;0144 Pedals (Left &amp; Rigth)&quot;)" opacity="0"><path style="fill:#00ff00;fill-rule:evenodd" d="M91.49,174.21L91.49,177.88L146.00,177.88L146.00,174.21zM196.80,113.03L199.89,114.82L200.67,115.84L202.72,117.13L204.01,117.38L211.74,123.25L212.21,124.32L213.76,125.85L215.03,126.38L216.08,127.39L217.36,128.93L220.19,131.74L220.94,133.30L221.94,134.36L222.70,134.88L223.27,135.60L225.82,139.46L225.82,142.13L225.48,143.05L225.82,143.82L225.81,146.24L225.55,147.00L224.67,148.43L223.51,149.58L219.68,152.17L218.53,152.56L210.64,157.76L210.12,158.52L203.39,162.83L201.86,163.35L200.13,163.35L198.58,162.85L198.06,162.09L197.09,161.56L196.02,161.57L188.86,157.43L188.08,156.41L186.54,155.90L179.88,150.74L176.28,147.41L174.50,145.35L172.69,143.81L170.87,141.53L170.61,141.03L170.34,134.67L171.67,132.13L172.83,130.98L173.70,130.99L176.79,133.30L177.31,134.10L177.95,134.08L180.90,132.34L180.93,132.04L179.87,131.00L179.84,129.18L177.57,128.41L175.50,126.89L174.47,126.38L174.23,124.57L172.16,122.79L170.37,121.50L170.35,120.03L171.92,117.50L173.35,116.37L173.87,116.09L174.47,116.09L176.27,117.40L178.07,118.93L180.39,118.92L181.16,119.95L182.97,121.22L184.42,123.14L186.55,123.03L188.87,124.84L189.51,124.85L191.44,122.35L191.20,121.73L190.64,121.24L190.61,115.66L191.59,114.58L193.20,113.11L193.88,112.76L196.04,112.77zM195.02,125.08L196.56,125.34L200.14,127.15L200.93,128.16L206.32,132.01L208.87,134.07L210.96,136.67L210.93,136.97L207.51,138.46L206.29,138.46L200.64,135.63L196.82,133.04L193.23,129.70L191.89,127.93L192.09,127.16L193.66,124.31L193.96,124.29zM189.35,136.91L194.00,140.22L196.03,142.04L199.11,145.60L197.21,148.99L196.83,148.98L194.49,147.18L193.48,146.65L192.17,146.42L189.12,144.85L188.59,144.09L184.25,140.99L181.40,138.45L180.90,138.17L179.84,136.88L179.76,136.41L183.89,134.58L184.48,134.57zM217.09,142.27L216.47,143.31L208.90,148.32L207.75,148.71L206.03,149.82L203.15,151.30L199.88,151.57L199.27,151.01L201.33,148.44L202.20,148.44L203.74,149.73L205.21,149.76L206.19,149.20L208.38,147.29L210.15,144.43L210.67,142.90L210.69,142.03L210.13,141.50L210.06,141.04L213.26,139.22z"/></g><g id="hotspot.3" onmouseover="ShowHotSpot(evt,'3')" onmouseout="HideHotSpot(evt,'3')" onmousemove="ShowToolTip(evt,'3',&quot;0144 Pedals (Left &amp; Rigth)&quot;)" opacity="0"><path style="fill:#00ff00;fill-rule:evenodd" d="M91.49,177.88L91.49,181.55L146.00,181.55L146.00,177.88zM118.01,21.38L118.52,22.15L119.01,22.45L120.05,22.39L126.74,26.26L127.24,27.29L127.73,27.57L129.05,27.80L133.65,31.15L139.34,35.98L139.82,37.30L140.85,38.33L141.88,38.58L144.18,40.90L144.95,42.44L144.95,44.58L144.62,45.54L143.86,46.31L143.39,47.39L138.19,49.40L137.50,49.41L136.63,48.85L135.16,50.74L135.19,51.41L137.25,52.97L138.03,53.98L138.19,55.36L139.30,55.79L142.91,58.09L143.43,58.86L143.39,60.14L145.20,61.44L147.55,63.49L147.54,64.08L146.23,66.65L144.34,68.35L142.90,68.36L139.30,65.52L137.24,65.55L136.25,64.49L134.19,62.70L133.40,61.46L132.82,61.70L131.59,61.71L130.59,61.17L130.29,61.47L129.78,64.26L131.10,64.50L134.42,67.10L134.44,67.95L133.92,68.97L132.40,70.79L131.02,71.46L128.68,71.69L128.04,72.33L126.65,73.00L124.41,72.99L123.11,72.75L120.02,70.96L119.06,69.87L117.26,68.64L116.21,68.63L108.50,62.72L108.02,61.40L106.44,59.89L105.96,59.65L105.18,59.65L100.82,55.26L99.79,53.98L99.52,53.73L99.27,52.44L97.99,50.94L96.95,50.92L94.37,47.33L93.77,44.77L94.29,42.95L96.90,38.88L102.08,31.23L102.84,29.68L106.34,24.45L108.24,22.76L109.69,22.16L111.47,22.17L112.60,21.22L113.28,20.86L115.16,20.61zM115.20,32.94L114.65,35.35L112.76,35.24L111.75,35.76L109.19,38.34L107.71,41.23L107.70,43.24L109.81,45.01L109.81,45.60L108.47,47.41L108.01,47.33L107.14,46.62L106.70,45.27L106.18,44.25L105.91,43.48L105.92,40.72L109.55,34.60L112.23,30.61zM120.58,35.49L122.86,37.06L126.46,39.88L128.01,41.41L129.04,41.66L132.15,44.97L132.63,46.29L133.93,47.29L132.01,49.38L131.60,49.40L128.51,47.84L124.69,45.25L121.10,41.90L118.02,38.31L117.47,37.80L117.47,37.15L117.91,33.95L118.23,33.92zM115.43,48.09L121.33,51.94L122.64,53.20L124.16,54.50L127.53,58.61L127.00,62.80L126.19,62.47L125.18,61.44L120.84,58.33L118.52,56.29L117.46,56.07L116.99,55.77L115.71,54.23L114.13,52.47L113.40,50.88L111.23,49.17L111.30,48.71L113.04,47.29L113.63,47.29z"/></g><g id="ToolTip" visibility="hidden" opacity="0" transform="translate(0,0)"><rect id="ToolTipShadow" opacity="0.20" fill="black" stroke="none" x="0" y="0" width="30" height="8"/><rect id="ToolTipBG" fill="#ffffe1" stroke="black" x="0" y="0" width="30" height="8"/><text xml:space="preserve" id="ToolTipText" fill="black" x="0" y="0" width="30" height="8">tooltip</text></g></g></svg>
